<?xml version="1.0" standalone="no"?>
<!DOCTYPE svg PUBLIC "-//W3C//DTD SVG 1.1//EN" "http://www.w3.org/Graphics/SVG/1.1/DTD/svg11.dtd">
<svg xmlns="http://www.w3.org/2000/svg">
<metadata>Generated by Fontastic.me</metadata>
<defs>
<font id="pokit-icon" horiz-adv-x="512">
<font-face font-family="pokit-icon" units-per-em="512" ascent="480" descent="-32"/>
<missing-glyph horiz-adv-x="512" />

<glyph unicode="&#97;" d="M407 471l-299 0c-23 0-44-19-44-44l0-339c0-25 21-44 44-44l299 0c25 0 44 19 44 44l0 339c0 25-21 44-44 44z m-213-353c0-3-1-4-4-4l-54 0c-3 0-4 1-4 4l0 123c0 3 1 5 4 5l54 0c3 0 4-2 4-5z m0 158c0-2-1-4-4-4l-54 0c-3 0-4 2-4 4l0 34c0 3 1 5 4 5l54 0c3 0 4-2 4-5z m96-158l-2 0c0-3-1-4-4-4l-54 0c-3 0-5 1-5 4l0 44c0 3 2 5 5 5l55 0c3 0 5-2 5-5z m0 79l-2 0c0-2-1-4-4-4l-54 0c-3 0-5 2-5 4l0 113c0 3 2 5 5 5l55 0c3 0 5-2 5-5z m93-79c0-3-1-4-4-4l-54 0c-3 0-5 1-5 4l0 94c0 3 2 4 5 4l54 0c3 0 4-1 4-4z m0 129c0-3-1-4-4-4l-54 0c-3 0-5 1-5 4l0 63c0 3 2 5 5 5l54 0c3 0 4-2 4-5z m-10 119l-231 0c-9 0-15 7-15 14 0 9 7 15 15 15l231 0c9 0 15-7 15-15 0-8-6-14-15-14z"/>
<glyph unicode="&#98;" d="M482 271l-76 72c-5 5-15 9-23 9l-279 0c-10 0-18-8-18-18l0-16c5-1 11-3 15-5l0 21c0 1 2 3 3 3l279 0c4 0 10-3 13-5l76-72c1-1 1-1 1-2 0 0 0-1-1-1l-76-72c-3-3-9-5-13-5l-279 0c-1 0-3 1-3 2l0 22c-5-3-10-4-15-5l0-17c0-10 8-18 18-18l279 0c8 0 18 4 23 9l76 72c4 4 6 8 6 13 0 5-2 9-6 13z m-320-27l-11-14c8-7 18-12 28-13l0-9 0 0 0-1 13 0 0 9c7 1 13 3 18 8 5 4 7 10 7 17 0 7-2 12-6 16-4 4-11 7-19 9l0 18c4-2 9-4 14-8l10 15c-8 5-16 9-24 10l0 6-13 0 0-6c-7-1-13-3-18-8-4-4-6-10-6-17 0-7 2-12 6-16 4-3 10-6 18-9l0-18c-5 2-11 6-17 11z m30 4c2-1 4-2 5-3 1-2 1-3 1-5 0-3-2-6-6-7l0 15z m-18 30c0 3 2 5 5 6l0-14c-3 2-5 4-5 8z m89-43c-2-2-5-3-8-3-4 0-7 1-10 2-3 2-6 4-7 5-1 1-2 2-3 2l-10-13c8-9 18-13 29-13 9 0 17 3 23 8 6 6 9 12 9 21 0 8-3 15-9 20-6 5-13 7-21 7-3 0-6 0-8-1l0 14 33 0 0 16-51 0 0-41 8-8c5 2 10 4 14 4 5 0 8-1 11-3 3-2 4-5 4-9 0-4-2-6-4-8z m67-20c12 0 21 4 27 12 5 8 8 18 8 32 0 13-3 24-8 32-6 7-15 11-27 11-11 0-20-4-26-11-6-9-9-19-9-32 0-14 3-24 9-32 6-8 15-12 26-12z m-12 64c3 5 7 8 13 8 6 0 10-3 12-8 3-5 4-12 4-20 0-9-1-16-4-21-3-5-7-7-12-7-6 0-10 2-13 7-3 5-4 12-4 21 0 8 1 15 4 20z m109-21c0-11-9-20-20-20-11 0-20 9-20 20 0 11 9 20 20 20 11 0 20-9 20-20z m-303 0c0 27-22 49-49 49-27 0-48-22-48-49 0-27 21-48 48-48 27 0 49 21 49 48z m-40-8l0-22-17 0 0 22-22 0 0 16 22 0 0 22 16 0 0-22 22 0 0-16z"/>
<glyph unicode="&#99;" d="M435 240l0 149c0 38-31 69-69 69l-221 0c-38 0-69-31-69-69l0-151 180-184 180 184z"/>
<glyph unicode="&#100;" d="M258 90c-14 0-28 6-38 17l-200 227 55 50 183-206 180 206 56-48-200-229c-9-11-23-17-36-17z"/>
<glyph unicode="&#101;" d="M438 92l-180 205-181-205-56 48 199 226c18 21 54 21 74 0l198-226z"/>
<glyph unicode="&#102;" d="M404 15c-8 0-17 3-23 8l-312 230 312 232c17 12 41 9 54-8 12-16 9-40-7-54l-229-170 227-169c17-12 21-37 8-54-6-9-18-15-30-15z"/>
<glyph unicode="&#103;" d="M108 17c-12 0-24 6-31 15-12 16-9 40 7 54l229 170-227 169c-18 13-21 37-9 54 13 18 37 21 54 9l312-232-312-232c-6-4-15-7-23-7z"/>
<glyph unicode="&#104;" d="M413 188c27 25 43 57 44 94 1 48-19 85-57 114-48 36-113 44-168 23-42 0-83-13-115-38-43-33-64-75-63-126 1-41 17-76 49-106-4-7-20-31-37-45l0 0c-2-2-2-2-8-6l-8-6 5-9c2-3 6-7 18-9 1 0 10-1 22-1 26 0 65 5 102 27 2 1 3 1 4 1 54-7 103 3 144 32 1 1 2 1 3 2 50-24 100-16 100-16 8 1 9 3 9 3-6 4-6 4-8 7-21 17-39 48-39 48-2 4-1 7 3 11z m-22 63c-2-39-24-75-58-100-4-2-8-5-11-7-27-15-56-23-88-23-10 0-20 1-30 2-1 0-2 0-3 0-5 0-10-1-13-3l-1 0c-33-21-68-25-92-25-2 0-4 0-5 0 18 19 33 43 33 44 3 5 6 15-5 26-27 26-41 55-42 90-1 44 17 80 54 109 15 11 32 19 49 25 17 6 36 9 54 9 44 0 87-17 118-46 29-27 43-63 40-101z m-80 18c-2 1-4 2-6 4-2 1-3 4-3 7l0 32c0 4-1 8-2 12-1 3-3 6-6 8-2 2-5 4-8 5-4 1-7 1-10 1l-23 0 0-21 10 0c3 0 6 0 8-1 2 0 3-1 4-2 1-2 1-3 1-4 1-2 1-3 1-4l0-30c0-4 0-8 2-10 1-3 3-5 5-6 2-1 4-2 7-3 2 0 4 0 7 0l0-1c-3 0-5 0-7-1-3 0-5-1-7-2-2-2-4-3-5-6-2-3-2-6-2-10l0-30c0-1 0-2-1-4 0-1 0-2-1-4-1-1-3-2-4-3-2 0-5-1-8-1l-10 0 0-21 22 0c4 0 8 1 11 2 3 1 6 2 8 5 3 2 5 4 6 8 2 3 2 7 2 12l0 32c0 3 1 5 3 7 2 2 4 3 6 4 3 1 5 1 8 1 2 1 4 1 6 1l0 21c-2 0-4 0-6 0-3 0-5 1-8 2z m-138 68c-3-1-6-3-9-5-2-2-4-5-5-8-2-4-3-8-3-13l0-31c0-3-1-6-2-7-2-2-4-3-7-4-2-1-5-2-7-2-3 0-5 0-6 0l0-21c1 0 2 0 4 0 0 0 1-1 2-1 2 0 5 0 7-1 3-1 5-2 7-4 2-2 2-4 2-7l0-32c0-4 1-8 3-12 1-3 3-6 5-8 3-3 6-4 9-5 3-1 7-1 11-1l22 0 0 21-11 0c-3 0-5 0-7 1-2 1-3 1-4 3-1 1-2 2-2 3 0 2 0 3 0 4l0 30c0 5-1 8-2 10-2 3-3 5-5 6-2 1-5 2-7 3-3 0-5 0-7 0l0 1c2 0 4 0 7 0 2 1 5 2 7 3 2 1 3 3 5 6 1 2 2 6 2 10l0 30c0 1 0 2 0 4 0 1 1 2 2 4 1 1 2 2 4 2 2 1 4 1 7 1l11 0 0 21-22 0c-4 0-8 0-11-1z"/>
<glyph unicode="&#105;" d="M354 276c12 0 20 0 32 0 0 12 0 16 0 28-13 0-20 0-32 0 0-13 0-16 0-28z m0-48c12 0 20 0 32 0 0 12 0 15 0 27-13 0-20 0-32 0 0-13 0-15 0-27z m0-49c12 0 20 0 32 0 0 13 0 16 0 28-13 0-20 0-32 0 0-13 0-16 0-28z m0-49c12 0 20 0 32 0 0 13 0 16 0 28-13 0-20 0-32 0 0-13 0-16 0-28z m93-37l-3 0c0 75 0 138 1 208 0 9 0 37-30 48-9 21-42 24-67 25-7 1-27 1-39 1l-1 0c0 1 0 3 0 4 0 28-6 35-32 37-9 10-17 18-25 26-2 3-12 2-12 2l-105 0c-9 0-11-2-11-2-7-8-14-15-24-26-29-3-33-7-33-39 0-85 0-195 0-284l-1 0c-7 0-13-6-13-15 0-8 6-15 13-15l382 0c7 0 13 7 13 15 0 9-6 15-13 15z m-243 40c-12 0-19 0-33 0 0 16 0 20 0 38 13 0 20 0 33 0 0-17 0-21 0-38z m0 67c-12 0-19 0-33 0 0 16 0 20 0 38 13 0 20 0 33 0 0-16 0-21 0-38z m0 67c-12 0-19 0-33 0 0 17 0 21 0 39 13 0 20 0 33 0 0-17 0-21 0-39z m0 68c-12 0-19 0-33 0 0 16 0 20 0 38 13 0 20 0 33 0 0-17 0-21 0-38z m63-202c-12 0-20 0-33 0 0 17 0 20 0 38 12 0 20 0 33 0 0-17 0-21 0-38z m0 67c-12 0-20 0-33 0 0 17 0 21 0 39 12 0 20 0 33 0 0-17 0-22 0-39z m0 67c-12 0-20 0-33 0 0 17 0 21 0 39 12 0 20 0 33 0 0-17 0-21 0-39z m0 68c-12 0-20 0-33 0 0 17 0 21 0 38 12 0 20 0 33 0 0-17 0-21 0-38z m151-241l-110 0c0 79 0 174 0 255l1 0c12 0 30 0 38-1 40-1 43-9 43-9 2-9 11-13 15-14 9-3 13-8 13-24 0-69 0-133 0-207z"/>
<glyph unicode="&#106;" d="M333 328c-9 3-18 3-29 3l-3 0c-12 0-21-7-25-18 0-3-2-6 0-7 1-2 4-3 7-3 2 0 2 0 3 0 0 0 2 0 2 0 1 0 1 0 3 0 6 0 10 1 13 3 2 0 2 1 3 1 5 3 9 6 15 6 2 0 2 0 3 0 5 0 6-3 8-7 1-8-2-12-9-17-14-6-26-9-36-10-8-2-15-2-21-3-5 0-8 0-13 0-3 0-7 0-10 0-11-2-21-6-30-11-8-4-14-11-20-18-9-14-9-24-3-35 5-6 11-12 18-16l27 13c0 0-1 2-1 2-11 6-15 18-9 28 3 5 7 8 15 9 13 2 27 5 41 5 12 1 25 5 39 11 6 3 12 6 16 10 9 6 18 14 20 27 1 6 0 11-3 15-5 3-12 9-21 12z m-18-83c0 0-2 0-2 0-9-3-19-6-30-6 2-1 2-1 2-3 3-4 3-9 1-13-1-6-4-11-9-14-7-4-15-7-26-10-19-6-34-14-45-24-7-8-9-17-6-26 2-6 6-10 11-15l21 14c-2 3-3 6-3 9 0 4 1 7 4 10 6 5 12 8 18 11 2 0 3 1 5 1 6 2 12 5 17 6 4 2 9 3 13 5 5 1 11 4 14 7 4 3 10 8 15 14 7 10 4 22 1 33 0 1 0 1-1 1z m-119 20c4 3 9 6 12 9 3 2 7 3 10 5-10 1-21 4-30 9-4 1-10 4-12 12 0 3-1 9 5 10 6 2 10 2 15-1 3-3 7-5 12-8 3-1 6-1 10-1 3 0 5 0 8 0 3 0 6 1 7 3 2 1 2 4 2 7-2 12-12 21-26 21-7 0-13 0-19-1-14-2-23-5-30-14-5-6-6-13-5-22 2-8 6-15 14-20 6-4 12-7 16-10 2-2 3-2 5-3 3 1 4 3 6 4z m63-50c0 0 0 3 0 5 0 4 0 9 0 13 0 0 0 2 0 2l-11-2 0-22c2 0 2 0 3 1 5 2 8 2 8 3z m0-55c0 0 0 3 0 6l0 1c0 0 0 2 0 2-3-2-6-2-9-3l0-11c0 0 1 0 1 0 2 0 3 2 3 2 4 1 5 3 5 3z m41 19c-5-1-8-3-11-4-3-2-6-3-10-5l-6-1c1-2 3-5 3-6 0-3 0-6-3-9-3-3-8-6-11-8-17-6-29-12-39-20-5-3-8-9-9-15 0-6 1-10 4-15 3-3 6-6 9-9 2-1 2-1 3-3 5 2 6 5 5 9 0 2 0 2-2 3 0 2-1 3-1 6 0 6 3 11 12 14 3 1 6 1 9 3 5 1 11 3 15 4 14 3 23 10 27 19 11 12 11 25 5 37 1 0 0 0 0 0z m-38-74c-11-1-12-1-12-10 6 4 11 6 12 10z m38 15c-2 0-2-1-3-1-3-3-8-5-11-6-4-2-10-5-15-5 5-6 3-10-3-15-3-3-6-6-12-9l-12-9 0-6c1 0 3 2 4 2 11 4 22 9 32 15 17 7 23 18 21 31 0 2-1 2-1 3z m-128 234c1-2 1-3 3-5 6-7 13-9 22-10 11 0 24 0 35 3 3 0 3 1 3 4 0 15 0 27 0 43 0 1 0 1 0 3-8 0-9 4-11 7-1 2-1 5-3 6-1 3-1 6-6 9-6 3-16 2-24-1-10-5-21-11-33-12-10 0-32 0-42 0-9 0-20 0-29 0-9 0-22 0-30 0 0 0-1-2-1-2 1-4 3-6 4-7 3-5 9-10 15-11 5 0 12 0 17-2 1-6 4-9 9-12 9-4 27 0 27-3 3-9 11-13 21-13 6 0 14 0 18 3 3 1 5 3 5 0z m283 45c-9 0-23 0-30 0-9 0-20 0-29 0-10 0-32 2-42 2-11 1-23 7-33 12-6 3-18 4-24 1-5-3-5-4-6-9-2-1-2-4-3-6 0-3-3-7-11-7 0-2 0-2 0-3 0-16 0-28 0-43 0-3 0-3 3-4 11-3 24-3 35-3 9 0 16 1 22 10 2 2 2 3 3 5 2 1 2 1 3 0 6-2 12-3 18-3 11 0 18 3 21 13 0 2 19-3 28 3 4 3 7 6 9 12 4 0 12 0 16 2 6 0 12 5 17 11 1 1 3 4 3 6 1 0 0 1 0 1z m-214 9c4-3 7-6 7-12 0-29 0-45 0-65 0-12 0-25 0-45l14 0c0 24 0 39 0 56 0 15 0 31 0 56 0 0 0 1 0 3 0 0 0 0 0 1 0 2 2 3 3 5 6 3 9 7 11 12 3 10 1 18-5 25-4 5-10 8-15 8l-5 0c-6-2-12-5-16-11-5-4-6-12-6-18 3-6 7-12 12-15z"/>
<glyph unicode="&#107;" d="M447 428l-48 0 0 18c0 18-15 33-33 33-18 0-33-15-33-33l0-18-154 0 0 18c0 18-15 33-33 33-18 0-33-15-33-33l0-18-48 0c-12 0-21-9-21-21l0-344c0-12 10-22 22-22l381 0c12 0 23 10 23 22l0 344c-2 12-11 21-23 21z m-19-149l0-18-52 0 0 39 31 0c12 0 21-9 21-21z m-219 21l0-39-52 0 0 39z m146 0l0-39-52 0 0 39z m-125-97l0 36 52 0 0-36z m52-21l0-37-52 0 0 37z m21 57l52 0 0-36-52 0z m-21 22l-52 0 0 39 52 0z m-73-22l0-36-52 0 0 36z m-73-36l-52 0 0 36 52 0z m0-21l0-37-52 0 0 37z m21 0l52 0 0-37-52 0z m52-59l0-39-52 0 0 39z m21 0l52 0 0-39-52 0z m73 0l52 0 0-39-52 0z m0 22l0 37 52 0 0-37z m73 37l52 0 0-37-52 0z m0 21l0 36 52 0 0-36z m-271 97l31 0 0-39-52 0 0 18c0 12 9 21 21 21z m-21-195l0 18 52 0 0-39-31 0c-12 0-21 9-21 21z m323-21l-31 0 0 39 52 0 0-18c0-12-9-21-21-21z"/>
<glyph unicode="&#108;" d="M211 29l-172 165c-16 15-16 41-1 57 15 17 40 17 57 2l104-99 214 313c12 18 37 22 55 10 18-12 23-37 11-55z"/>
<glyph unicode="&#109;" d="M121 248c-1 1-2 2-3 3l-24-9c-14-5-14-19-14-19l1-20 1-1 23 0 1 8c-7 1-11 6-11 13 0 7 6 13 13 13 7 0 13-6 13-13 0-7-5-12-11-13l0-8 28 0 0 36c-7 0-13 3-17 10z m35 6l-1 0 0 6-15-10-15 10 0-6 0 0c0-1 0-2 1-2 4-6 9-8 14-8l1 0c7 0 12 5 15 10z m30-12l-24 9c-1-1-1-2-2-3-4-6-10-10-17-10l0-35 56 0 1 20c0 0 0 15-14 19z m-6-25l-22 0 0 6 22 0z m-68 67c0 0 0 0 0 0 0 0 0 0 0 0 1 0 1 0 1 0 0 0 0-1 0-1 0 0 1 0 1 0 0-1 0-1 1-1 1-1 1-1 1-1 1-2 4-13 15-20 0 0 5-3 8-3l2 0c3-1 8 3 8 3 11 7 14 18 14 20 0 0 1 0 2 1 0 0 0 0 1 1 0 0 0 0 0 0 0 0 0 0 1 1 0 0 0 0 0 0l0 0c0 0 0 0 0 0 1 2 1 3 2 4 0 1 0 2 0 3 0 0 0 1 0 2 0 0 0 1-1 2 0 0 0 1 0 1-1 1-1 1-1 2-1 0-1 0-1 0 0 1 0 1 0 1l-2 0c1 3 1 6 1 8 0 2 0 5-1 7 0 2-1 4-2 5-1 2-1 3-2 4-1 1-2 2-3 3-1 1-2 1-3 2-1 0-1 1-2 1 0 0-1 0-1 0-2 1-5 2-7 3-2 0-3 0-5 0-1 0-3 0-4 0-1 0-1 0-2-1-1 0-1-1-1-1-1-1-1-1-1-2 0 0-1-1-1-1 0-1 0-1 0-1 0 0 3-3 3-3-1 0-5 3-6 3-1 0-2 0-3-1-1 0-2-1-3-1-1-2-2-2-3-4-1-1-2-3-3-5 0-2-1-4-1-7 0-3 0-6 0-9 0 0 0 0 0-1-1 0-1 0-1-1 0 0-1 0-1-1 0 0 0 0-1-1 0-1-1-1-1-2 0-1 0-2 0-2 0-1 0-2 1-3 0-1 0-2 1-4z m2-61c0 3-2 6-6 6-3 0-6-3-6-6 0-4 3-6 6-6 3 0 6 2 6 6z m324 136l-366 0c-9 0-17-8-17-17l0-147c0-9 8-16 17-16l366 0c9 0 16 7 16 16l0 147c0 9-7 17-16 17z m-222-162c0-3-3-5-5-5l-138 0c-2 0-5 2-5 5l0 143c0 3 3 5 5 5l138 0c2 0 5-2 5-5z m185 30l-133 0c-5 0-8 3-8 7 0 4 4 8 8 8l133 0c4 0 7-4 7-8 0-4-3-7-7-7z m0 32l-133 0c-5 0-8 4-8 8 0 4 4 7 8 7l133 0c4 0 7-3 7-7 0-4-3-8-7-8z m0 33l-133 0c-5 0-8 4-8 8 0 4 4 7 8 7l133 0c4 0 7-3 7-7 0-4-3-8-7-8z"/>
<glyph unicode="&#110;" d="M366 255c-18 16-54 28-56 28-27 10-28 10-28 10-2 0-14 3-28 8l-2 0c-21 7-29 13-33 17-4 4-6 10-6 19 0 8 3 14 9 19 7 6 16 10 28 10l6 1c5 0 15-1 23-2 22-5 39-14 40-14 17-9 41-4 53 12l19 27-7 5c-32 22-72 32-73 32-12 3-21 13-21 23 1 11-3 21-9 27-5 5-11 8-17 8-15-1-27-17-27-38l0-14c-27-2-47-11-67-28-21-19-32-43-32-73-1-30 8-53 27-69 16-14 52-27 54-27 15-5 39-13 54-17l3-1c22-7 31-13 35-17 5-5 8-11 8-20-1-8-4-15-11-21-7-6-18-9-30-10l-29 1c-26 5-55 25-55 25-16 11-41 8-54-7l-22-26 7-5c35-32 89-47 92-48 11-3 21-15 21-27 1-20 13-36 28-36l0 0c6 0 11 3 15 7 7 7 11 18 10 31l0 17c28 3 49 11 69 29 22 19 33 43 34 74 0 30-9 54-28 70z"/>
<glyph unicode="&#112;" d="M274 154l0 325-36 0 0-325-101 0 119-121 119 121z"/>
<glyph unicode="&#113;" d="M424 397l-336 0c-37 0-50-25-30-55l160-232c22-31 56-31 76 0l160 231c20 31 7 56-30 56z"/>
<glyph unicode="&#114;" d="M294 375l-193-191c-9-9-14-20-15-32l-23-65c-7-19 3-30 23-22l68 24c4 1 7 3 9 6 6 3 12 6 16 10l191 192-37 39z m152 74c-21 21-57 21-79 0l-34-35 78-78 35 34c21 22 21 58 0 79z"/>
<glyph unicode="&#115;" d="M142 338c-48 0-86-39-86-86 0-47 38-85 86-85 47 0 85 38 85 85 0 47-38 86-85 86z m3-134c-12-1-21 3-29 12 3 3 4 4 6 7 12-10 28-11 40 0 3-3 2-4 5-7-5-7-13-11-22-12z m22 45c-2-2-2-4-3-7-5-10-11-19-23-19-11 1-16 10-22 20-1 2-3 5-5 7-2 5-4 9 0 14 2 2 2 6 3 8 4 9 9 11 17 7 10-5 18-10 28-15 2-1 5-1 9-2 1-5 1-10-4-13z m33-41c-4 3-8 6-12 7-5 1-7 4-8 9 0 8-1 17-1 25 0 11 1 23-1 34-2 17-14 27-29 29-19 2-33-3-40-18-6-11-7-23-6-36 1-11 1-22 0-34 0-3-3-8-5-8-6-2-11-5-14-8-10 12-15 27-15 44 0 40 32 73 73 73 40 0 73-33 73-73 0-17-6-32-15-44z m91 90c1 0 2 0 2 0l1 1c3 1 5 4 3 7-1 4-4 5-7 4l-1 0c-3-1-5-5-3-8 0-3 3-4 5-4z m-18-7c1 0 2 0 2 1l1 0c3 1 5 5 3 8-1 3-4 4-7 3l-1 0c-3-1-5-5-3-8 0-2 3-4 5-4z m-18-6c1 0 2 0 2 0l1 0c3 1 5 5 3 8-1 3-4 5-7 4l-1-1c-3-1-5-4-4-7 1-3 4-4 6-4z m54 20c1 0 2 0 2 0l1 0c3 1 5 5 3 8-1 3-4 5-7 3l-1 0c-3-1-5-5-3-8 1-2 3-3 5-3z m-72-27c1 0 2 0 2 0l1 0c3 2 5 5 3 8-1 4-4 5-7 4l-1 0c-3-2-5-5-3-8 0-2 3-4 5-4z m3-56l0 0c-3 1-7 0-8-3-1-4 1-7 4-8l1 0c0-1 1-1 1-1 3 0 5 2 6 4 1 4 0 7-4 8z m18-6l0 0c-3 1-7 0-8-3-1-4 1-7 4-8l0 0c1-1 2-1 2-1 3 0 5 2 6 5 1 3 0 6-4 7z m55-18l0 0c-4 1-7 0-8-4-1-3 0-6 4-7l0-1c1 0 1 0 2 0 3 0 5 2 6 4 1 4-1 7-4 8z m-36 12l-1 0c-3 1-6 0-7-4-1-3 0-6 3-7l1-1c0 0 1 0 2 0 2 0 5 2 6 4 1 4-1 7-4 8z m18-6l0 0c-4 1-7 0-8-4-1-3 0-6 4-7l0 0c1-1 1-1 2-1 3 0 5 2 6 4 1 4-1 7-4 8z m106 123l-11-7-11 7 0-4 0 0c0-1 0-1 1-2 3-4 6-6 10-6l1 0c5 0 9 4 11 7l-1 0z m10 25c0 1 0 1 0 2-1 0-1 0-1 0 0 1 0 1 0 1 0 0 0 0 0 0l0 1c0 2 0 4 0 6 0 2 0 3 0 5-1 1-1 2-2 3-1 2-1 2-2 4-1 0-1 1-2 2-1 0-1 1-2 1-1 1-1 1-1 1-1 0-1 0-1 0-2 1-4 1-5 2-2 0-3 1-4 1-1 0-2 0-3-1-1 0-1 0-2-1 0 0-1 0-1-1 0 0 0 0-1-1 0 0 0 0 0 0 0-1 0-1 0-1 0 0 2-2 2-2 0 0-3 2-4 2 0 0-1 0-2 0-1-1-2-1-2-2-1 0-2-1-3-2-1-1-1-2-2-4-1-1-1-3-1-5 0-2 0-4 0-7 0 0 0 0 0 0-1 0-1 0-1-1 0 0 0 0-1-1 0 0 0 0 0-1-1 0-1-1-1-1 0-1 0-1 0-2 0-1 0-1 0-2 1-1 1-2 1-3 0 0 0 0 1 0l0 0c0 0 0 0 0-1 1 0 1 0 1 0 0 0 0 0 0-1 1 0 1 0 1 0 1-1 2-9 11-15 0 0 3-2 5-2l2 0c2 0 6 2 6 2 8 5 10 13 11 15 0 0 0 0 1 0 0 0 0 0 0 0 0 1 0 1 1 1 0 0 0 0 0 0 0 0 0 0 0 0l0 1c0 0 0 0 0 0 0 0 0 0 0 0 0 0 1 0 1 1 0 0 0 1 1 2 0 0 0 1 0 2 0 0 0 0 0 1 0 1 0 1-1 1z m-45-48c-3 0-5-2-5-4 0-3 2-5 5-5 2 0 4 2 4 5 0 2-2 4-4 4z m4-5c0 0 0 0 0 0-1-2-2-3-4-3 0 0 0 0 0 0 0 0 0 0 0 0 0 0 0 0 0 0-1 0-1 0-1 0 0 0 0 0-1 0-1 0-1 1-2 2 0 0 0 0 0 1 0 0 0 0 0 0 0 0 0 0 0 0 0-2 1-3 3-3 0 0 0 0 1 0 0 0 0 0 0 0 2 0 3 1 4 3 0 0 0 0 0 0z m0 1c0-2-2-4-4-4-1 0-2 1-2 1 0 0 1-1 2-1 2 0 3 2 3 4 0 2-1 3-3 3-2 0-4-1-4-3 0 0 0 0 0 0 0 2 2 3 4 3 0 0 0 0 1 0 0 0 1 0 2-1 0 0 0 0 0 0 0 0 0 0 0 0 0 0 0-1 0-1 1-1 1-1 1-1z m80 53c0 2-1 3-1 5-2 5-4 10-7 14-1 1-2 3-3 4-2 3-4 5-6 7 0 0 0 0-1 0 0 0 1 0 1 0-2 2-3 3-5 4 0 0 1 0 1-1 0 0 0 1-1 1 0 0-1 1-2 1 0 1 0 1-1 1 0 0-1 1-2 1-6 4-12 7-19 8 0 0-1 0-1 1-3 0-6 1-10 1 0 0 0 0 0 0 0 0-1 0-1 0 0 0 0 0-1 0 0 0 0 0 0 0 0 0 0 0 0 0 0 0 0 0-1 0 0 0 0 0-1 0 0 0 0 0 0 0 0 0 0 0 0 0 0 0-1 0-1 0 0 0 0 0 0 0-1 0-1 0-2 0 0 0 0 0 0 0 0 0-1 0-1 0 0 0 0 0 0 0 0 0 0 0 0 0-1 0-1-1-2-1 0 0-1 0-1 0-1 0-1 0-2 0 0 0-1 0-1 0-1 0-1 0-2-1 0 0-1 0-1 0 0 0-1 0-1 0-1-1-2-1-2-1 0 0-1 0-1 0-1 0-1 0-2-1 0 0-1 0-1 0-1 0-1-1-2-1 0 0-1 0-1-1 0 0-1 0-1 0-1 0-1-1-2-1 0 0-1 0-1 0 0-1-1-1-1-1-1-1-1-1-2-1 0 0 0-1-1-1 0 0-1 0-1-1 0 0-1 0-1-1-1 0-1 0-1-1-1 0-1 0-2 0 0-1-1-1-1-1 0-1-1-1-1-1-1-1-1-1-1-1-1-1-1-1-1-1-1-1-1-1-1-1-1-1-1-1-1-1-1-1-1-1-1-1-1-1-1-1-1-2-1 0-1 0-1-1-1 0-1 0-1-1-1 0-1-1-1-1-1 0-1-1-1-1 0-1-1-1-1-1 0-1-1-1-1-2 0 0 0 0-1-1 0 0 0-1 0-1-1 0-1-1-1-1 0-1-1-1-1-2 0 0-1-1-1-1 0 0 0-1 0-1-1-1-1-1-1-2 0 0 0-1-1-1 0 0 0-1 0-1-1-1-1-1-1-2 0 0 0 0 0-1-1-1-1-1-1-1 0-1 0-1 0-2 0-1 0-1-1-2 0 0 0 0 0-1 0-1 0-1 0-2 0 0-1 0-1-1 0 0 0-1 0-2 0 0 0 0 0 0 0 0 0 0 0 0 0 0 0-1 0-1 0-1 0-1 0-2 0-1 0-1 0-1 0-1 0-2 0-3 0-7 1-13 2-19 1-2 1-4 2-5 3-7 7-13 11-18 0-1 1-1 1-2 1 0 2-2 3-2 2-2 3-3 5-4 2-2 5-4 7-5 1-1 2-1 4-2 0 0 1-1 1-1 1 0 2 0 2-1 1 0 1 0 1 0 0 0 1 0 2-1 0 0 1 0 1 0 1 0 1 0 2-1 1 0 1 0 2 0 0 0 1 0 1 0 2-1 3-1 4-1 3-1 6-1 9-1 1 0 2 0 2 0 1 0 1 0 2 0 1 0 1 0 2 0 0 0 0 0 0 0 0 0 1 0 1 0 0 0 0 0 0 0 0 0 0 0 0 0 0 0 0 0 0 0 0 0 0 0 0 0 1 0 1 0 2 0 0 0 0 0 0 0 0 0 0 0 0 0 0 0 0 0 0 0 0 0 1 1 1 1 0 0 0 0 0 0 0 0 1 0 1 0 0 0 0 0 1 0 0 0 1 0 1 0 0 0 0 0 0 0 0 0 0 0 0 0 0 0 0 0 0 0 1 0 1 0 1 0 0 0 1 0 1 0 0 0 0 0 0 0 0 0 0 0 0 0 0 1 1 1 1 1 0 0 1 0 1 0 1 0 2 0 2 1 0 0 1 0 1 0 1 0 1 0 1 0 0 0 0 0 0 0 0 0 1 0 1 0 0 0 0 0 0 0 0 0 0 0 0 0 0 1 1 1 1 1 0 0 1 0 2 1 0 0 1 0 1 0 0 1 1 1 1 1 1 0 1 0 2 1 0 0 0 0 1 0 0 0 1 1 1 1 1 0 1 0 1 1 1 0 1 0 2 1 0 0 1 0 1 0 0 1 1 1 1 1 1 0 1 1 1 1 1 0 1 0 1 1 0 0 0 0 1 0 0 0 0 0 0 0 0 0 0 0 0 0 0 0 1 1 1 1 0 0 0 0 0 0 0 0 1 0 1 1 0 0 0 0 1 0-1 0-1 0-1 0 0 0 1 0 1 1 0 0 0 0 0 0 0 0 0 0 0 0 0 0 1 1 1 1 1 0 1 1 1 1 0 0 1 0 1 1 0 0 0 0 0 0 1 1 1 1 1 1 1 1 1 1 1 1 1 1 1 1 1 2 1 0 1 0 1 1 1 0 1 1 1 1 1 0 1 1 1 1 0 0 1 1 1 1 0 1 1 1 1 1 0 1 0 1 1 2 0 0 0 1 0 1 1 0 1 1 1 1 0 1 1 1 1 2 0 0 0 1 1 1 0 0 0 1 0 1 1 1 1 1 1 2 0 0 0 1 1 1 0 0 0 1 0 1 0 1 1 1 1 2 0 0 0 0 0 0 0 0 0 1 0 1 1 1 1 1 1 2 0 0 0 0 0 1 0 1 0 1 0 2 1 0 1 0 1 1 0 1 0 1 0 2 0 0 0 0 0 1 0 0 1 1 1 2 0 0 0 0 0 0 0 0 0 0 0 0 0 0 0 1 0 1 0 1 0 1 0 2 0 0 0 1 0 1 0 0 0 0 0 0 0 1 0 2 0 3 0 5 0 11-2 16z m-80-62c-1 0-2 0-2 1-1 0-2 0-2 1-4 2-7 4-10 6 0 1 0 1 0 1 0 5 5 10 10 10 5 0 10-5 10-10 0-5-3-8-6-9z m50 4c-1 0-1 0-2-1l-15 1 0 4 17 0z m12 12c-2 2-4 5-8 6l-18 7c0-1-1-1-1-2-4-5-8-7-13-8l0-24c-1 0-1 0-2 0l-1 0c0 0-1 0-1 0l0 24c-5 1-9 4-12 8-1 1-1 2-2 3l-18-7c-4-1-6-3-8-6-6 9-9 20-9 31 0 28 23 51 52 51l0 0c29 0 52-24 51-53 0-11-4-22-10-30z m-33-140l-11-7-11 8 0-5-1 0c1 0 1-1 1-1 3-4 7-6 11-6l0 0c6-1 10 3 12 7l-1 0z m-35-22c-3 0-5-2-5-5 0-2 2-4 5-4 2 0 4 2 4 4 0 3-2 5-4 5z m66 79c12-11 19-27 20-44-1 17-8 33-20 44-11 10-25 16-41 16-34 0-62-26-63-60 0 0 0 0 0 0 0-35 27-63 61-63 1 0 2 0 2 0 1 0 2 0 2 0 1 0 1 0 2 0 0 0 1 0 1 0 1 0 1 0 2 0 0 0 0 1 1 1 1 0 1 0 2 0 0 0 1 0 1 0 1 0 1 0 2 0 0 0 1 1 1 1 1 0 2 0 3 0 0 0 0 0 0 0 10 3 19 9 26 16 2 2 4 4 5 6 8 10 13 23 13 37 0-1 0-1 0-2 0 1 0 1 0 2 0 18-8 35-20 46z m0 0c-11 10-25 16-41 16 16 0 30-6 41-16z m-63-93c0 0-1 1-2 1 0 0-1 1-2 1-3 2-6 4-9 7 0 0 0 0 0 1 0 5 4 9 10 9 5 0 9-4 9-10 0-4-2-7-6-9z m50 5l0 0c0-1 0-1 0-1l-1 0-15 0 0 5 16 0 0-4z m13 11c-2 3-4 5-9 7l-17 7c0-1-1-2-2-2-3-5-7-8-12-8l-1-24c0 0-1 0-1 0l-1 0c-1 0-1 0-2 0l1 24c-5 0-10 3-13 8-1 1-1 2-1 2l-18-6c-4-1-7-4-8-6-7 9-10 19-10 30 1 29 24 51 53 51 28 0 51-23 51-52 0-11-4-22-10-31z m-19 25c1 1 1 1 1 1 0 1-1 4-1 6-1 5-1 13-1 13 2 15-7 24-7 24-4 5-10 7-14 6l0 0c0 0 0-1 1-1 1-5 4-12 11-19 0 0-9 6-13 14-3-8-12-14-12-14 7 7 10 14 11 19 0 0 0 1 1 1 0 0 0 0 0 0-4 1-10-1-14-6 0 0-9-9-7-24 0 0 0-9 0-13-1-2-2-5-2-6l0 0c0 0 0 0 0 0 0 0 0 0 0 0 0 0 0 0 0 0 0 0 0 0 1 0 0-1 2-1 3-1 1 0 2 0 3 0 0 0-1 0-1 0 0 0 1 0 1 0 0 0 0 0 0 0 1 0 2 0 3 0 1 0 2 1 3 1 1-2 2-3 4-5 0 0 4-2 5-2l2 0c1 0 5 2 5 2 2 2 4 3 5 5 1 0 2-1 3-1 1 0 2 0 3 0 0 0 0 0 0 0 1 0 2 0 3 0 0 0 0 0 0 0 0 0 0 0 0 0 2 0 4 0 4 1 0 0 0 0-1-1z"/>
<glyph unicode="&#116;" d="M481 256c-1 3-2 6-4 9l-4 6c-56 57-113 93-170 107-15 2-31 5-48 5-17 0-31-2-47-5-57-14-156-85-170-107-4-9-4-9-6-15-1-6-3-10-1-16 1-6 4-13 8-18 56-55 113-92 172-105 14-3 29-6 45-6l1 0c15 1 31 3 47 6 57 13 115 48 170 105 5 5 7 11 9 18 0 6 0 12-2 16z m-399-9c39 40 79 66 120 78-25-18-41-46-41-78 0-32 16-61 42-79-41 13-82 40-121 79z m151-7c-17 0-31 13-31 31 0 17 13 30 31 30 17 0 30-13 30-30 0-18-14-31-30-31z m76-72c26 18 42 47 42 79 0 34-17 63-44 79 43-11 84-39 125-79-41-41-82-67-123-79z"/>
<glyph unicode="&#117;" d="M481 256c-1 3-2 6-4 9l-4 6c-27 28-54 51-82 68l46 44-36 40-60-57c-12 4-25 9-37 12-14 2-30 5-48 5-16 0-31-2-47-5-58-14-162-90-171-107-5-10-5-10-6-15-1-6-3-10-1-16 1-6 4-13 8-18 27-26 52-47 78-64l-41-38 38-40 54 50c15-6 29-10 43-15 14-3 29-5 45-5l1 0c15 1 31 2 47 5 57 14 114 49 170 106 4 4 7 10 9 17 0 8 0 14-2 18z m-311-48l-18-16c-23 13-47 32-70 55 39 40 79 66 120 78-25-18-41-46-41-78 0-14 3-28 9-39z m42 41c-6 4-10 11-10 22 0 17 13 30 31 30 10 0 19-4 24-11z m97-81c26 18 42 47 42 79 0 16-4 31-12 46l17 14c24-14 51-33 76-58-41-43-82-69-123-81z"/>
<glyph unicode="&#118;" d="M256 451c-107 0-195-88-195-195 0-107 88-195 195-195 107 0 195 88 195 195 0 107-88 195-195 195z m0-365c-94 0-170 76-170 170 0 94 76 170 170 170 94 0 170-76 170-170 0-94-76-170-170-170z m-54 204c15 0 26 13 26 28 0 14-13 26-28 26-16 0-27-12-26-28 0-15 13-26 28-26z m137 27c0-15-12-28-28-28-15 0-27 13-27 28 0 16 12 28 27 28 16 0 28-12 28-28z m-83-149c-38 0-70 32-70 70l-25 0c0-52 42-95 95-95 53 0 95 43 95 95l-25 0c0-38-32-70-70-70z"/>
<glyph unicode="&#119;" d="M256 451c-107 0-195-88-195-195 0-107 88-195 195-195 107 0 195 88 195 195 0 107-88 195-195 195z m0-365c-94 0-170 76-170 170 0 94 76 170 170 170 94 0 170-76 170-170 0-94-76-170-170-170z m-54 205c15 0 26 13 26 28 0 15-13 26-28 26-16-1-27-13-26-27 0-15 13-27 28-27z m137 26c0-15-12-28-27-28-16 0-28 13-28 28 0 16 12 28 28 28 15 0 27-12 27-28z m-166-108l165 0 0-25-165 0z"/>
<glyph unicode="&#120;" d="M259 227c-45 0-85-27-95-63l25-8c5 27 36 46 68 44 34 0 63-17 71-44l25 8c-11 36-49 63-94 63z m-2 227c-109 0-197-88-197-198 0-110 88-198 197-198 110 0 198 88 198 198 0 110-88 198-198 198z m0-371c-95 0-172 78-172 173 0 95 77 173 172 173 96 0 173-78 173-173 0-95-77-173-173-173z m-57 207c16 0 28 13 28 28 0 16-11 27-28 27-14 0-27-11-27-27 0-17 11-28 27-28z m141 29c0-16-12-28-28-28-15 0-27 12-27 28 0 15 12 28 27 28 16 0 28-13 28-28z"/>
<glyph unicode="&#122;" d="M426 306l-125 124c-25 25-66 25-90 0l-125-124c-25-25-25-66 0-93l125-128c25-25 66-25 90 0l125 129c25 24 25 67 0 92z"/>
<glyph unicode="&#65;" d="M462 93l-111 111c47 66 40 157-19 217-33 31-75 49-120 49-46 0-88-18-120-49-32-33-49-76-49-120 0-46 17-89 49-120 33-32 75-50 120-50 35 0 68 12 96 31l111-112c7-6 14-9 22-9 8 0 16 3 21 10 12 12 12 31 0 42z m-327 130c-21 21-32 48-32 78 0 29 11 56 32 77 20 21 48 32 77 32 28 0 57-11 77-33 43-43 43-111 0-154-20-20-47-31-77-31-29 0-57 11-77 31z"/>
<glyph unicode="&#66;" d="M265 105l29-72 44 118c129-21 102-126 102-126l-2-3-362 0-3 3c0 0-25 105 102 126l44-118 30 72z m105 207c0 1-1 1-1 3 0 0 0 0 0-2-122 24-226 0-226 0l-1 0 0-1c-13-22-1-53 17-60 2-8 12-55 59-87 0 0 20-13 32-13l9 0c12-2 32 13 32 13 45 32 57 79 59 87 19 6 31 41 20 60z"/>
<glyph unicode="&#68;" d="M325 477c-27 20-58 20-67 20-8 0-41-2-68-20-29-21-53-63-53-149 0-4 0-9 0-13l3 0c0 0 107 24 233 0 3 95-18 141-48 162z m-3-90l-48 0 0-48-36 0 0 48-48 0 0 38 48 0 0 46 36 0 0-48 48 0z"/>
<glyph unicode="&#69;" d="M330 462c-26 18-59 20-68 20-9 0-41-2-68-20-28-21-52-46-51-132 0-5 0-5 0-9l3 0c0 0 102 46 233 0 3 95-18 119-49 141z m-3-73l-48 0 0-49-37 0 0 49-48 0 0 37 48 0 0 47 37 0 0-48 48 0z"/>
<glyph unicode="&#70;" d="M256 130l-212 179c-18 15-20 40-5 58 15 19 41 20 59 5l158-133 158 134c18 16 44 13 59-4 15-18 12-44-5-59z"/>
<glyph unicode="&#71;" d="M457 256l-205 173c-16 13-38 10-52-5-13-16-10-38 5-51l95-80-209 0c-21 0-37-16-37-37 0-20 16-37 37-37l209 0-95-80c-15-13-18-37-5-51 8-9 18-13 28-13 9 0 16 2 24 8z"/>
<glyph unicode="&#72;" d="M413 188c27 25 43 57 44 94 1 48-19 85-57 114-48 36-113 44-168 23-42 0-83-13-115-38-43-33-64-75-63-126 1-41 17-76 49-106-4-7-20-31-37-45l0 0c-2-2-2-2-8-6l-8-6 5-9c2-3 6-7 18-9 1 0 10-1 22-1 26 0 65 5 102 27 2 1 3 1 4 1 54-7 103 3 144 32 1 1 2 1 3 2 50-24 100-16 100-16 8 1 9 3 9 3-6 4-6 4-8 7-21 17-39 48-39 48-2 4-1 7 3 11z m-22 63c-2-39-24-75-58-100-4-2-8-5-11-7-27-15-56-23-88-23-10 0-20 1-30 2-1 0-2 0-3 0-5 0-10-1-13-3l-1 0c-33-21-68-25-92-25-2 0-4 0-5 0 18 19 33 43 33 44 3 5 6 15-5 26-27 26-41 55-42 90-1 44 17 80 54 109 15 11 32 19 49 25 17 6 36 9 54 9 44 0 87-17 118-46 29-27 43-63 40-101z"/>
<glyph unicode="&#73;" d="M265 179c9 2 17 3 23 8 6 4 9 10 9 16 0 8-2 12-6 17-5 4-12 7-24 12l-2 0c-9 3-24 7-33 10 0 0-23 8-32 17-10 9-15 21-15 39 0 17 6 30 18 41 12 10 24 16 44 16l0 14c0 9 6 18 12 18 6 0 11-8 11-15 0-9 7-18 16-20 0 0 24-6 44-19l-9-12c-6-8-18-11-26-6 0 0-12 6-25 9-8 1-19 1-19 1-9 0-15-3-21-7-4-5-7-11-7-17 0-6 1-12 6-15 4-4 12-7 22-12l2 0c9-3 17-4 18-4 0 0 8-3 17-6 0 0 22-8 33-17 10-9 15-23 15-39 0-17-6-32-18-42-12-11-26-17-45-17l0-16c0-10-5-19-11-19-6 0-11 8-12 17 0 9-8 20-18 23 0 0-33 9-54 28l10 12c6 8 18 9 26 3 0 0 18-13 36-16z m-6-71c-9 0-17 8-17 18 0 10-7 20-18 23l-39 18c-7 6-15 11-16 12-2 2 3 8 9 15l6 6c6 8 12 12 13 12 2-1 9-6 17-12 0 0 9-6 16-9 9-3 20-6 26-6 5 0 15 2 23 3 0 0 0 0 4 3 5 3 6 8 6 14 0 6-1 9-4 12-3 3-6 3-6 3-9 3-21 7-26 9-5 1-17 4-26 7 0 0-24 8-33 17-12 11-16 24-16 42 0 18 7 33 19 45 12 11 24 14 24 14 11 6 20 13 20 22 0 10 7 17 17 17 9 0 16-7 16-17 0-9 8-18 17-21l25-9c9-4 17-9 18-10 2-2-3-8-7-17l-5-7c-6-8-12-14-12-12-1 1-9 6-18 10 0 0-9 5-24 8-4 1-4 1-4 1-6 0-11 0-13 0-1 0-7-1-15-3 0 0 0 0-4-3-5-3-6-7-6-12 0-4 1-9 4-12 2-3 5-3 5-3 9-4 21-7 26-9 6-1 16-4 27-9 0 0 24-7 34-18 12-11 18-26 17-44 0-18-8-34-21-45-12-10-26-13-26-13-9-2-16-12-16-22-2-9-8-18-17-18z m-69 83c-5-4 0-12 7-18l33-15c9-3 18-4 20-4 1 0 3-8 3-17 0-9 3-17 6-17 3 0 6 8 5 17 0 9 0 17 1 17 2 0 11 1 20 3 0 0 12 1 24 12 10 9 16 22 16 37 0 15-4 27-13 35-11 9-30 15-30 15-9 3-21 8-28 9-6 2-16 6-25 9 0 0-3 2-8 6-4 5-7 12-7 20 0 7 3 15 9 21 6 4 13 7 24 9 0 0 12 0 20-2 15-3 24-7 24-7 9-5 18-5 22 1 3 5 0 12-9 17l-19 7c-9 2-18 5-20 5-1 0-3 7-1 16 0 9-3 15-6 15-4 0-7-7-7-15 0-9-1-15-3-15-1 0-10-1-19-3 0 0-11-1-23-12-10-9-16-22-16-37 0-15 4-27 13-35 9-7 30-15 30-15 9-3 21-8 26-8 5-1 17-6 26-9 0 0 4-1 9-6 6-4 7-12 7-21 0-9-3-15-10-21-6-4-8-6-8-6-9-1-21-3-27-3-6 0-18 3-27 6l-18 8c-8 6-18 6-21 1z"/>
<glyph unicode="&#74;" d="M243 184c0 0 0 0 0-1l20-24 104 120c11 12 9 28-3 38-11 11-27 9-38-2l-36-43 0 152c0 15-12 27-27 27-14 0-26-12-26-27l0-149-34 40c-10 11-26 13-38 2-11-10-13-26-3-38z m211 57c-15 0-27-11-27-26l0-97-339 0 0 97c0 15-12 26-27 26-14 0-26-11-26-26l0-151 445 0 0 151c0 15-12 26-26 26z"/>
<glyph unicode="&#75;" d="M426 337c-4 55-28 97-71 128-25 18-54 29-84 32-1 0-1 0-3 0-7 0-15 0-24 0-11 0-20-3-30-6-66-18-107-62-124-128-9-35-4-69 8-104 15-47 39-90 66-131 21-30 45-59 69-86 8-9 15-12 23-27 0 0 0 0 2 0 18 15 34 39 52 59 45 51 83 108 104 174 9 29 15 59 12 89z m-170-63c-29 0-51 24-51 53 0 28 24 52 53 52 28 0 51-24 51-52 0-30-24-53-53-53z"/>
<glyph unicode="&#76;" d="M259 170c-7 0-15 3-28 10l-195 110 0-179c0-16 12-31 28-31l390 0c14 0 28 22 28 38l0 172-195-110c-15-7-21-10-28-10z m195 247l-390 0c-16 0-28-13-28-29l0-46 223-126 222 126 0 46c0 16-13 29-27 29z"/>
<glyph unicode="&#77;" d="M316 158c-23 25-40 20-61-4-12-14-36-21-47-11-22 18-35 31-53 57-22 37-25 59-25 59-6 12 12 35 29 41 33 9 38 25 25 56-9 19-19 38-31 54-8 14-22 16-38 7-30-16-60-69-54-104 12-60 28-107 60-152 30-41 66-75 113-103 19-10 79-10 110 12 16 10 19 23 10 38-12 18-25 35-38 50z m100 211c-53 74-147 91-151 91-10 1-21-6-22-17-2-10 6-20 16-22 1 0 83-13 126-74 25-37 32-82 22-138-2-12 6-22 16-23 1 0 3 0 4 0 9 0 18 7 18 16 12 66 3 121-29 167z m-148 6c-11 1-21-6-22-17-2-10 6-20 16-21 0 0 39-6 60-36 12-17 15-39 10-66-1-11 6-22 16-23 2 0 3 0 5 0 8 0 16 7 17 16 7 37 2 69-16 95-31 43-83 52-86 52z"/>
<glyph unicode="&#78;" d="M261 477c-124 0-223-99-223-223 0-123 99-221 221-221 122 0 223 100 223 221 0 122-100 223-221 223z m16-259l-63-36 0 145 63-36 63-37z"/>
<glyph unicode="&#79;" d="M434 298l-136 0 0 136c0 24-19 42-42 42-23 0-42-20-42-42l0-136-136 0c-24 0-42-19-42-42 0-24 20-42 42-42l136 0 0-136c0-24 19-42 42-42 23 0 42 20 42 42l0 136 136 0c24 0 42 19 42 42 1 24-18 42-42 42z"/>
<glyph unicode="&#80;" d="M261 480c-124 0-223-99-223-221 0-122 99-221 221-221 122 0 221 99 221 221 2 122-98 221-219 221z m93-244l-71 0 0-70c0-12-10-23-22-23-13 0-23 11-23 23l0 70-72 0c-12 0-23 11-23 23 0 12 11 23 23 23l70 0 0 70c0 12 11 23 23 23 12 0 23-11 23-23l0-70 70 0c12 0 23-11 23-23 0-12-9-23-21-23z"/>
<glyph unicode="&#83;" d="M453 376l-399 0c-10 0-18-8-18-18l0-241c0-10 8-18 18-18l399 0c10 0 18 8 18 18l0 241c0 10-8 18-18 18z m-221-87l92 0c5 0 10-4 10-10 0-5-5-10-10-10l-92 0c-6 0-11 5-11 10 0 6 5 10 11 10z m-11 31c0 5 5 10 10 10l93 0c5 0 10-5 10-10 0-6-5-11-10-11l-92 0c-6 0-11 5-11 11z m11-71l92 0c5 0 10-5 10-10 0-5-5-10-10-10l-92 0c-6 0-11 5-11 10 0 5 5 10 11 10z m0-40l92 0c5 0 10-5 10-10 0-6-5-11-10-11l-92 0c-6 0-11 5-11 11 0 5 5 10 11 10z m0-41l92 0c5 0 10-4 10-10 0-5-5-10-10-10l-92 0c-6 0-11 5-11 10 0 6 5 10 11 10z m188-22l-59 0 0 182 59 0z m-333 182l87 0 0-77-87 0z m379 85l-423 0c-4 0-6-2-6-6l0-11c0-4 2-6 6-6l423 0c3 0 6 2 6 6l0 11c0 4-3 6-6 6z"/>
<glyph unicode="&#84;" d="M318 202l-3 1 0 23-59-38-59 38 0-23-2 0c1-3 3-6 5-8 15-21 34-31 56-30l3 0c28-2 48 19 59 37z m-139-21c-3 4-6 8-8 12l-93-36c-56-18-57-75-57-75l4-79 5-1 91 0 0 28-2 0c-24 5-42 25-42 51 0 28 24 52 52 52 29 0 52-24 52-52 0-25-18-46-41-51l0-29 107 0 0 139c-26 1-50 15-68 41z m256-24l-93 36c-2-4-5-8-8-13-18-25-41-39-67-41l0-138 221 0 3 81c0 0-1 57-56 75z m-21-100l-88 0 0 24 88 0z m-266 266c1 0 1 0 1 0 0 0 0 0 0-1 1-1 1-1 2-1 0 0 0-1 1-2 1 0 1-1 2-2 1 0 1-1 2-2 4-3 6-4 8-4 1-9 13-50 55-78 0 0 20-12 32-12l8 0c11-1 31 12 31 12 43 28 54 69 56 78 1 0 3 1 7 4 1 1 2 2 2 2 1 1 2 2 2 2 1 0 1 1 2 2 0 0 1 0 1 1l1 1c0 0 0 0 0 0 3 5 4 9 6 13 1 4 2 8 2 11 0 4 0 7-1 10-1 3-2 6-3 8 0 2-2 4-3 6-1 2-2 3-3 4-2 2-2 2-3 3-1 1-1 1-1 1l-2 2c2 12 2 22 2 32 0 10-1 18-3 26-2 8-5 14-8 20-3 6-7 12-11 16-4 5-7 8-11 12-3 2-7 5-10 7-3 2-6 3-7 4-2 1-3 1-3 1-11 4-19 8-27 9-8 1-15 3-21 3-6 0-11-1-15-2-4 0-7-2-10-4-2-1-4-3-6-5-1-1-2-3-3-5-1-2-1-4-1-5 0-1 0-2 0-2 0 0 11-14 9-14-2 0-17 14-21 13-3-1-7-1-11-3-4-2-9-4-13-8-4-3-8-7-12-12-4-6-8-12-10-20-3-8-5-17-7-28-1-11-1-23 0-37 0 0 0 0-1-1-1-1-1-1-3-3 0-1-2-2-3-4-1-2-2-4-3-6-2-3-2-6-3-8-1-3-1-6-1-10 0-3 1-7 2-11 2-4 3-8 6-13z m5-242c0 13-11 24-24 24-14 0-24-11-24-24 0-14 10-24 24-24 13 0 24 10 24 24z"/>
<glyph unicode="&#85;" d="M241 180c-21 1-32 15-33 31l-6 42c-3 21 9 35 29 38 56 7 81 24 81 56l0 1c0 28-22 46-59 46-28 0-51-9-73-25-9-6-19-11-29-11-24 0-44 21-44 44 0 12 4 25 16 34 33 28 76 45 131 45 91 0 153-46 153-130l0-1c0-81-56-113-125-128l-3-10c-3-16-15-31-38-32z m0-41c33 0 56-24 56-54l0-2c0-31-23-54-56-54-32 0-55 24-55 54l0 2c0 30 23 54 55 54z"/>
<glyph unicode="&#86;" d="M259 486c-128 0-230-102-230-228 0-127 102-231 230-231 128 0 230 103 230 231-1 126-103 228-230 228z m23-326c0-17-12-29-31-29-16 0-30 12-30 29 0 16 12 28 30 28 17 2 31-12 31-28z m58 143c0-44-30-62-67-70l-2-6c0-7-7-16-17-16l-3 0c-10 0-16 7-18 16l-3 23c-1 11 5 20 15 21 31 3 44 14 44 30 0 15-12 24-31 24-16 0-28-4-40-13-4-3-9-6-15-6-13 0-24 10-24 24 0 6 3 13 9 18 18 15 41 24 71 24 48 3 81-23 81-69z"/>
<glyph unicode="&#87;" d="M92 113c3 6 1 12-5 17-37 39-60 84-61 141-2 72 28 128 79 170 94 77 232 68 318-18 91-90 78-238-25-315-56-42-118-54-186-43-4 0-9 0-13-3-77-50-161-36-161-36-11 1-12 4-12 4 9 6 9 6 12 11 28 25 54 72 54 72z m59 84c0 9 6 20 15 24 0 0 19 11 27 27 4 10 6 19 4 28l-31 0c-9 0-17 7-17 16l0 51c0 9 8 17 17 17l54 0c9 0 16-8 16-17l0-34c0-9 0-24-1-33 0 0-3-38-21-59-15-18-36-32-63-36z m132 0c0 9 6 20 14 24 0 0 19 11 27 27 4 10 6 19 4 28l-31 0c-9 0-17 7-17 16l0 53c0 9 8 16 17 16l54 0c9 0 16-7 16-16l0-35c0-9 0-24-1-31 0 0-3-38-21-61-15-18-36-31-63-36l0 15z"/>
<glyph unicode="&#88;" d="M425 408c-85 78-222 86-314 15-51-39-79-90-78-156 2-53 24-95 62-131 6-5 7-10 4-16 0 0-25-42-52-66-3-3-3-3-12-9 0 0 1-3 12-4 0 0 83-14 158 33 4 1 9 3 13 3 67-9 127 1 183 40 100 71 111 208 24 291z m-187-161c-5-12-9-21-17-30-6-9-13-15-21-20-7-4-15-7-21-7-6 0-9 1-12 4-3 3-4 8-4 12 0 8 3 14 9 17 9 4 16 10 21 16 4 6 7 15 9 25l-3 0c-9 0-18 3-26 10-7 8-12 17-12 27 0 11 5 20 12 27 8 8 17 11 29 11 12 0 22-5 30-15 7-11 12-24 12-42 0-12-2-24-6-35z m105-11c-7-15-15-25-25-34-11-9-20-12-27-12-6 0-9 1-12 4-3 3-5 8-5 12 0 8 3 12 9 17 9 4 17 10 21 16 5 6 8 15 9 25l-3 0c-9 0-18 3-25 10-8 8-12 17-12 27 0 11 4 20 12 27 7 8 16 11 28 11 12 0 23-5 30-15 8-9 12-24 12-42 0-15-4-31-12-46z"/>
<glyph unicode="&#89;" d="M420 334c0 3-44 0-100 23-16 7-32 14-48 20-8 4-18 6-27 5-10-2-21-3-31-5-17-5-34-9-47-22-1-1-2-1-2-1-26-7-51-12-78-15-7 0-15-1-23-1l-33-1 0-20 33 0c30 2 59 7 90 13-3-14-7-28-15-39-4-7-3-11 2-17 8-7 17-9 27-7 12 1 21 7 30 14 8 7 14 16 18 26 4 10 15 15 24 11 39-18 77-36 116-54 10-5 14-14 10-23-4-9-14-12-23-8-31 13-61 26-91 38-3 1-6 2-8 3-4 0-7-1-9-5-1-4 0-7 3-9 2-2 5-3 7-4 29-12 59-24 88-37 8-3 12-11 8-18-3-7-11-10-19-7-17 8-34 15-51 22-11 5-22 9-32 13-5 2-10 0-11-4-2-4 0-8 5-10 4-2 8-4 12-6 19-8 39-16 58-24 5-2 9-6 10-12 1-11-9-18-20-13-18 7-37 15-56 23-4 2-8 3-12 4-4 1-7-1-8-4-2-4-1-7 2-9 2-2 4-3 6-4 13-5 26-10 39-16 3-1 3-3 3-6-1-8-10-13-19-10-8 4-16 7-24 11-2 1-3 2-4 4-6 11-14 15-27 12-4-2-9 1-9 6-3 17-21 25-35 16-5-3-6-2-6 3-1 9-5 16-14 20-8 4-16 3-23-2-3-3-5-3-8-1-11 5-22 10-34 16l0-19c0-4 1-5 4-7 8-3 14-5 21-8-2-7-2-4-3-10-1-8 3-14 9-18 10-7 19-6 33 4-2-11 0-21 11-27 11-7 21-4 31 5-3-12-1-22 10-27 13-7 24-1 31 12 0-3 0-4 0-5 0-9 4-16 12-19 8-3 17-2 22 5 4 5 11 12 14 12 12 2 20 9 23 21 1 1 1 2 2 3 11-5 22-5 32 2 10 7 14 16 13 29 2 0 3 0 5 1 8 1 15 4 19 11 4 8 10 10 18 13 3 1 6 2 9 2 6-3 80 132 40 131z m64-2l-23 8c-14 3-11-7-11-7-10-91-60-139-61-140-4-3 7-3 6-3l11-9c14-3 14 0 14 0 48 30 70 137 70 137 1 17-6 14-6 14z"/>
<glyph unicode="&#90;" d="M259 461c-113 0-205-92-205-205 0-113 92-205 205-205 113 0 205 92 205 205 0 113-94 205-205 205z m0-383c-98 0-176 80-176 176 0 98 80 177 176 177 98 0 176-80 176-177 0-96-80-176-176-176z m86 276l-115-169-58 57c-6 6-15 5-20 0-6-6-4-15 0-19l83-80 134 196c4 6 3 15-3 19-9 5-17 3-21-4z"/>
<glyph unicode="&#50;" d="M351 292l82-24c1-1 2-1 2-2 0 0-1-1-2-2l-79-53c0-3 0-7 0-10 0-3 0-5 0-6l87 58c6 4 10 10 9 16-1 6-6 10-14 12l-75 23c-4-5-7-9-10-12z m-260-58l188-68c4-1 9-2 13-2 10 0 20 3 26 7l1 0c-5 4-7 8-8 12l-1 0c-4-3-11-5-18-5-3 0-6 0-9 1l-187 68c-3 1-6 2-9 3 2 1 3 2 5 3l119 69c5 2 13 4 20 4 3 0 7 0 9-1l65-19c0 0 0 0 1 0l0 1c2 2 5 6 9 10l-71 22c-4 1-8 1-13 1-10 0-20-2-27-6l-119-69c-18-10-18-13-18-16l0-4 3-2c1-2 9-5 21-9z m360 7l-132-93c-8-6-23-7-33-4l-215 81c-10 4-18-1-18-9 0-9 8-19 18-23l212-81c10-4 24-2 33 4l135 95c9 6 16 17 16 26 0 8-7 10-16 4z m-152 50c-4 0-7 0-7 0-11 3-15 3-15 3-10 2-21-1-30-6-6-3-11-8-14-12 0-1-1-2-1-3-2-1-5-10-5-12-1-8-1-14 1-22 0-1 0-1 0-1 0-2 1-5 4-5l1 0c1 0 2 0 2 1 1 1 1 3 1 4 0 0-1 1-1 1l0 1c0 8-1 16 3 24 0 1 2 2 3 2 2 1 3-2 4-3 0-1 0-2 0-3-3-9-1-19 0-28l1-2c0-1 1-5 4-4 2 0 3 3 3 4 0 2 0 4 0 6 0 2-1 4 0 6 0 5 1 10 2 15 0 1 2 2 3 2 1 0 3-2 4-3 0-1 0-3 0-5-2-8-1-16 0-24 1-2 1-4 1-6 0-1 1-1 3-2 0 0 0-1 1-1l1-1 0 1c0 1 1 1 1 1 1 1 1 2 1 3 0 2 0 4 0 6l0 2c0 8 0 14 2 19 1 1 2 3 3 3 1 0 3-1 4-3 1-1 1-3 1-4-2-8-1-17 0-26 0-1 0-3 1-4 0-2 2-4 3-5 2 0 2 1 3 1 1 1 1 3 1 4l0 0c0 2 0 3 0 4-1 3-1 6 0 8 0 5 1 10 2 14 0 1 1 3 4 3 3 0 4-2 4-4 0-1 0-3 0-4-3-8-1-16 0-24 0-2 0-4 0-6 1-1 2-2 3-2 0-1 1-1 1-1l1-1 1 1c0 0 0 1 0 1 1 1 2 1 2 3 0 2 0 3 0 5 0 2-1 4 0 6 0 6 1 11 2 16 1 1 1 3 4 2 2 0 4-1 4-3 0-2 0-3 0-4-3-9-1-18 0-27l0-3c0-1 2-2 3-3 0 0 0 0 1-1l1-1 0 2c1 0 1 0 1 0 1 1 2 2 2 3 0 2 0 5 0 7 0 2 0 5 0 7 0 4 1 7 2 12 1 3 3 4 5 4 2-1 4-3 4-6 0-1-1-3-1-4-1-4-1-9-1-13 0-4 0-9 1-13l0-2c0-1 1-2 1-2 1-1 1-1 1-1l1-2 0 1 1-1 0 1c1 0 1 1 1 1 1 1 2 2 2 3 0 2 1 5 0 9 0 5 0 10 0 15 2 5 3 11 6 15l2 3c2 2 4 4 6 7 4 6 4 14-1 20-1 2-3 3-5 5-4 3-8 6-13 9-5 3-7 6-7 9-1 3 1 4 1 4 10 11 70 80 80 93l0 0 0 1c0 6-5 8-8 8-5 1-9-2-9-2-5-5-23-26-40-46-16-19-33-38-37-43l0 0c-3-3-8-7-17-7z"/>
<glyph unicode="&#51;" d="M81 327l43 0 0 0 5 28-22-4-13 66 51 10 8 37-88-17c-3-1-6-6-5-10z m329-19l-360 0 0-165c0 0 0-23 26-39l77-46 26-16 25-15 26-16c0-1 26-19 52-1l52 31 25 15 26 15 52 31c26 16 26 39 26 39l0 167-53 0z m20 19l25 117c1 4-2 9-6 10l-258 56c-4 1-9-4-9-8l-38-176 286 0z m-117 113c1 5 6 8 11 7l92-20c5-1 8-6 7-11-1-5-5-8-9-8-1 0-2 0-2 0l-92 20c-5 2-9 7-7 12z m-8-34c1 5 6 8 11 7l92-20c6-1 9-6 7-11-1-4-4-8-9-8 0 0-1 0-2 0l-92 20c-5 2-8 8-7 12z m-8-33c1 5 6 8 11 7l92-20c5-1 8-6 7-11-1-5-4-8-9-8-1 0-1 0-2 0l-92 20c-4 2-7 7-7 12z m-92 99l85-19-18-84-84 19z"/>
<glyph unicode="&#53;" d="M497 60l-140 140c26 33 40 74 40 117 0 52-21 101-57 138-37 36-86 57-138 57-52 0-101-21-138-57-37-37-57-86-57-138 0-52 20-101 57-138 37-37 86-57 138-57 43 0 84 14 117 40l140-140c5-5 12-8 19-8 7 0 14 3 19 8 10 11 10 27 0 38z m-395 157c-26 27-41 62-41 100 0 37 15 73 41 99 27 27 62 42 100 42 38 0 73-15 100-42 26-26 41-62 41-99 0-38-15-73-41-100-27-26-62-41-100-41-38 0-73 15-100 41z"/>
<glyph unicode="&#54;" d="M410 96l-315 0 0 286 51 0c0 0 20 26 59 52l-136 0c-15 0-27-12-25-26l0-337c0-14 12-26 27-26l367 0c15 0 27 12 26 26l0 193-53-43z m-80 231l0-71 146 105-146 106 0-66c-207 15-157-208-157-208 26 75 44 128 157 134z"/>
<glyph unicode="&#55;" d="M229 218l-29 12 0 7c6 6 8 13 8 14 0 0 1 0 2 2 1 0 0 0 1 0 0 1 0 1 0 1 0 0 0 0 0 0 1 2 2 3 2 4 0 0 0 2 0 3 0 0 0 1 0 2 0 0 0 1 0 2 0 1-1 0-1 1 0 1-1 1-1 1 0 0 0 0 0 1 0 3-1 7-1 9 0 2 0 4 0 6-1 1-1 3-2 4-1 2-3 4-3 4-1 1-1 3-3 3-1 1-2 1-3 2 0 1-1 2-2 2 0 0 0 0 0 0-3 0-5 1-7 2-1 0-4 0-5 0-1 1-3 0-3 0-2 0-2 0-3 0-1-1-1-1-1-2 0 0-1 0-1-1 0 0 0-1 0-1 0-1 0-1 0-1 0 0 0 0-1 0 0 0-1 0-2 0-1 0-2 0-2 0-2-1-3-1-4-2 0-2-2-2-3-4-1-1-2-2-2-5-1-2-2-3-2-6 0-3 0-6 0-10l0 0c0-1-1-1-1-1 0 0 0-1 0-2 0 0-1-1-1-2 0 0 0-1 0-2 0-1 1-2 1-3 0-1 0-2 1-3 0-1 0-1 0-1 0 0 0 0 0 0 0-1 1-1 1-1 1-1 2-1 2-1 0-2 2-8 7-13l0-9-28-11c-14-4-14-18-14-18l2-16 111 0 0 16c0 0 0 13-13 17z m-60 180l173 0c16 0 20 6 20 30 1 24-3 28-19 28l-25 0c-3 31-30 56-62 56-32 0-59-25-61-56l-26 0c-16 0-20-4-20-28 0-24 4-30 20-30z m68 57c0 10 9 18 19 18 11 0 19-8 20-18l0-1c0-11-9-19-20-19-10 0-19 9-19 19z m187-19l-41 0c0-3 0-6 0-9 0-16 0-50-40-50l-173 0c-40 0-40 34-40 50 0 3 0 6 0 9l-42 0c-11 0-20-9-20-20l0-395c0-10 9-20 20-20l336 0c11 0 20 10 20 20l0 395c0 11-9 20-20 20z m-134-119l101 0c6 0 12-5 12-11 0-6-5-12-12-12l-101 0c-6 0-12 6-12 12 1 6 6 11 12 11z m0-41l101 0c6 0 12-5 12-11 0-6-5-12-12-12l-101 0c-6 0-12 6-12 12 1 6 6 11 12 11z m0-42l101 0c6 0 12-5 12-11 0-6-5-12-12-12l-101 0c-6 0-12 6-12 12 1 6 6 11 12 11z m0-40l101 0c6 0 12-6 12-12 0-6-5-11-12-11l-101 0c-6 0-12 5-12 11 0 6 6 12 12 12z m-170 118l134 0 0-138-134 0z m271-224l-266 0c-6 0-11 6-11 12 0 6 5 11 11 11l266 0c6 0 12-5 12-11 0-6-5-12-12-12z m0 42l-266 0c-6 0-11 5-11 11 0 6 5 12 11 12l266 0c6 0 12-6 12-12 0-6-5-11-12-11z"/>
<glyph unicode="&#56;" d="M355 331l-67 0 0 45c0 17 10 22 19 22 8 0 48 0 48 0l0 72-66 0c-74 0-90-54-90-91l0-48-42 0 0-75 42 0c0-98 0-215 0-215l89 0c0 0 0 119 0 215l60 0z"/>
<glyph unicode="&#57;" d="M391 475l-270 0c-46 0-84-38-84-84l0-270c0-46 38-84 84-84l270 0c46 0 84 38 84 84l0 270c0 46-38 84-84 84z m-20-258l-50 0c0-80 0-127 0-127l-74 0c0 0 0 46 0 127l-35 0 0 62 35 0 0 41c0 29 14 74 75 74l54 0 0-61c0 0-33 0-39 0-7 0-16-3-16-17l0-37 56 0z"/>
<glyph unicode="&#33;" d="M480 292l-70 0 0 71c0 6-5 9-9 9l-20 0c-6 0-11-5-11-9l0-71-70 0c-6 0-9-4-9-10l0-20c0-6 4-9 9-9l70 0 0-72c0-6 5-9 11-9l20 0c6 0 9 4 9 9l0 70 70 0c6 0 9 5 9 10l0 19c2 8-3 12-9 12z m-238-63c-15 10-28 25-28 30 0 9 1 12 19 29 26 19 40 45 40 72 0 24-8 47-22 62l11 0c2 0 5 0 6 1l27 20c5 4 6 9 5 13-2 5-5 8-9 8l-125 0c-14 0-27-3-41-8-45-15-77-54-77-93 0-56 44-99 103-99-2-5-2-10-2-14 0-9 2-17 6-24 0 0-1 0-1 0-56 0-106-27-125-68-5-10-8-21-8-32 0-10 3-19 8-28 12-21 37-38 72-47 18-4 38-7 57-7 18 0 35 3 51 7 50 15 82 51 82 92 0 38-14 62-49 86z m-156-92c0 29 37 54 80 54l1 0c9 0 18-1 27-4 3-2 6-5 9-6 20-14 33-23 36-36 2-3 2-8 2-11 0-36-27-54-81-54-43 1-74 25-74 57z m39 277c6 8 15 12 26 12l1 0c27-1 54-31 59-68 3-21-2-40-12-51-6-7-15-12-26-12-27 2-54 33-59 69-4 20 0 38 11 50z"/>
<glyph unicode="&#34;" d="M222 198c-2 2-3 3-5 4-6 2-12 3-17 3l-1 0c-27 0-51-17-51-35 0-21 20-37 46-37 35 0 52 12 52 35 0 3 0 5-1 7-2 9-10 15-23 23z m-19 71c6 0 12 3 16 8 7 7 10 20 8 33-3 23-20 43-38 44l0 0c-7 0-12-3-16-8-7-7-10-19-8-32 3-24 20-44 38-45z m190 206l-272 0c-46 0-84-38-84-84l0-272c0-46 38-83 84-83l272 0c46 0 83 37 83 83l0 272c0 46-37 84-83 84z m-166-363c-10-2-21-4-33-4-12 0-25 2-36 4-22 6-39 17-46 30-4 6-5 13-5 19 0 7 1 14 5 20 12 26 44 44 79 44 1 0 1 0 1 0-3 5-4 10-4 15 0 3 0 6 1 9-37 1-65 28-65 64 0 25 20 50 49 60 9 3 18 4 27 4l79 0c3 0 5-1 6-4 1-3 0-5-2-7l-18-13c-1-1-2-1-4-1l-6 0c8-10 13-24 13-40 0-17-9-34-25-46-12-10-13-12-13-18 0-3 9-13 19-20 22-15 30-31 30-56 0-27-20-50-52-60z m180 137c0-4-3-6-7-6l-45 0 0-46c0-3-3-6-6-6l-13 0c-3 0-6 3-6 6l0 46-45 0c-4 0-7 2-7 6l0 13c0 3 3 6 7 6l45 0 0 45c0 4 3 6 6 6l13 0c3 0 6-2 6-6l0-45 45 0c4 0 7-3 7-6z"/>
<glyph unicode="&#35;" d="M133 41l-97 0 0 290 97 0z m-49 329c-33 0-54 23-54 52 0 28 21 49 54 49 33 0 53-21 55-49 0-29-22-52-55-52z m395-329l-97 0 0 155c0 39-13 66-48 66-27 0-42-18-49-35-3-6-3-15-3-24l0-162-97 0c0 0 2 263 0 290l97 0 0-40c13 19 36 48 87 48 63 0 111-42 111-131z"/>
<glyph unicode="&#36;" d="M393 475l-272 0c-46 0-84-38-84-84l0-272c0-47 38-84 84-84l272 0c47 0 84 37 84 84l0 272c0 46-37 84-84 84z m-208-355l-57 0 0 171 57 0z m-29 195l0 0c-19 0-31 13-31 29 0 17 12 30 32 30 19 0 31-13 32-30 0-16-13-29-33-29z m234-195l-57 0 0 92c0 23-8 38-29 38-16 0-25-10-29-20-1-4-2-9-2-14l0-96-57 0c0 0 1 155 0 171l57 0 0-24c8 12 21 28 51 28 38 0 66-24 66-77z"/>
<glyph unicode="&#37;" d="M483 399c-16-7-34-12-54-15 20 12 35 30 42 53-18-11-39-18-60-23-16 18-42 30-69 30-53 0-95-42-95-95 0-7 1-15 3-21-78 3-148 41-194 98-8-13-12-30-12-48 0-33 16-62 42-78-15 0-30 4-42 12 0 0 0-2 0-2 0-45 33-84 75-93-8-2-17-3-26-3-6 0-12 0-18 1 12-37 47-64 89-66-33-24-74-39-119-39-7 0-15 0-22 1 42-27 91-42 144-42 173 0 268 145 268 268 0 5 0 8 0 12 20 14 36 30 48 50z"/>
<glyph unicode="&#41;" d="M352 162c-6 1-12 2-18 3-5-4-9-8-14-11-13-9-36-22-59-21l-6 0c-1 0-2 0-3 0-22 0-44 13-56 20-5 4-10 8-15 12-14-1-21-3-21-3-153-23-123-142-123-142l5-3 428 0 5 3c-1 1 30 122-123 142z m23 164c0 4-1 6-2 9-2 3-2 5-4 7-1 2-2 4-3 5-2 1-2 2-3 3-1 1-2 1-2 1l0 2c3 13 3 24 3 34 0 11-2 20-4 29-2 8-5 15-8 22-4 7-7 12-11 17-4 5-8 10-12 13-4 4-7 6-11 8-3 3-6 4-7 5-2 1-3 2-3 2-11 4-20 7-29 9-8 2-15 3-21 3-6 0-11-1-15-2-5 0-8-2-11-4-2-2-4-4-6-6-2-2-3-4-4-6-1-2-1-4-1-5 0-1 0-2 0-2 0 0-1 0-4 0-2 0-5 0-8 0-4-1-8-2-12-4-4-2-9-4-13-8-5-3-9-7-13-14-4-5-8-12-11-21-3-9-5-19-6-30-1-12-1-26 0-42 0 0 0 0-1 0-1-1-2-2-3-3-2-2-3-4-4-5-1-2-2-5-3-7-1-3-2-6-3-9 0-3-1-6-1-10 0-4 1-8 2-13 2-4 3-9 6-13 0 0 0 0 0-1 0 0 0 0 0-1 0 0 1 0 1-1 0 0 0 0 1-1 0 0 1-1 1-2 1 0 2-1 2-2 0-1 1-1 2-2 5-4 7-6 8-5l0 2c0 0 0 0 0 0-1 12 4-1 1-2 1-5 11-53 58-86 0 0 21-13 33-12l8 0c12-1 32 12 32 12 48 33 58 81 59 86-4 1 2 14 0 2 0 0 0 0 0 0l0-1c0 0 0-1 0-1 1-1 4 0 8 5 1 1 2 1 2 2 1 1 2 2 2 2 1 1 1 2 1 2 1 1 1 1 1 1 1 1 1 1 1 1 0 1 1 1 1 1l0 1c2 4 4 9 5 13 2 5 2 9 2 13 0 3 0 6-1 9z"/>
<glyph unicode="&#42;" d="M363 156c-6 1-12 2-19 3-4-4-9-8-14-12-14-9-38-22-62-21l-7 0c0 0-1 0-2 0-23 0-46 13-58 21-6 4-12 8-17 12-14-1-22-3-22-3-160-24-128-149-128-149l4-3 449 0 5 3c0 0 32 127-129 149z m25 172c-1 4-2 7-3 9-1 3-2 5-4 7-1 2-2 4-4 5-1 2-2 3-3 4 0 0-1 1-1 1l0 2c3 13 3 25 3 36 0 11-2 21-4 29-2 9-5 17-9 24-3 7-7 13-11 18-4 5-9 10-13 13-4 4-8 7-11 9-3 2-6 4-8 5-2 1-3 1-3 1-12 5-21 8-30 10-9 2-16 3-22 3-7 0-12 0-17-1-4-1-8-3-11-5-2-2-5-4-6-6-2-2-3-5-4-7 0-2-1-3-1-5 0-1 0-2 0-2 0 0-1 0-4 0-2 0-5 0-8-1-4 0-8-2-13-4-4-1-9-4-14-8-5-3-9-8-14-14-4-6-8-14-10-23-3-8-6-19-7-31-1-13-1-27 0-44 0 0 0 0-1-1-1 0-2-1-3-3-1-1-3-3-4-5-1-2-3-4-4-7-1-2-2-6-2-9-1-3-2-7-1-11 0-4 0-8 2-13 1-4 3-9 5-14 0 0 0 0 0 0 1-1 1-1 1-1 0 0 0-1 1-1 0-1 0-1 1-2 0 0 1-1 1-1 1-1 1-2 2-2 1-1 1-2 2-3 5-4 8-5 9-5 0 0 0 1 0 1 0 0 0 1 0 1 0 0 0 0 0 0 0 0 0 1 0 1 0 0 0 0 0 0-2 12 4-2 0-3 1-5 11-55 61-90 0 0 22-14 34-13l9 0c12-1 34 13 34 13 50 35 60 85 61 90-4 1 2 15 0 3 0 0 0 0 0 0 0 0 0-1 0-1 0 0 0 0 0 0 0 0 0-1 0-1 0 0 0-1 0-1 1 0 4 1 9 5 1 1 1 2 2 3 1 0 1 1 2 2 0 0 1 1 1 1 1 1 1 1 1 2 1 0 1 1 1 1 0 0 0 0 1 1 0 0 0 0 0 0 2 5 4 10 5 15 2 4 2 8 2 12 1 4 1 8 0 11z"/>
<glyph unicode="&#43;" d="M428 259c-3 7-7 10-15 10-10 0-29 0-39 0-12-1-20 3-26 12-13 17-25 34-39 50-8 10-28 27-28 27-13 10-18 28-18 28-16 29-26 55-26 55-12 36-25 32-25 32-77-28-27-146-21-160 2-5 2-10 3-16-4 0-8 0-12 0-22-1-44-4-64-13-14-6-28-15-35-29-12-23-7-44 7-64 3-3 3-6 1-10-9-21-2-42 20-52 3-1 3-3 3-6 0-22 10-34 31-39 2-1 3-1 5-1 0-12 3-23 12-31 18-13 76-7 84-9 5-1 11-2 17-2 12 0 24-2 35 4 25 13 46 30 65 50 3 4 6 5 11 5 12 0 32 0 44 0 7 0 10 3 12 8 20 51 20 100-2 151z m-308-105c-6 3-8 9-4 16l0 2 2-1c12-4 24-5 39-5 2 0 5 0 8 0l3 0c3 0 6 1 8 2l5 2c11 4 22 9 33 15 7 3 13 3 18-1 3-2 5-4 8-6l6-5-3-1c-4-2-8-4-12-5-9-4-17-8-25-12-11-5-22-8-33-8-2 0-4 0-6 0-5 0-11 0-16 1-6 0-12 0-17 0-6 1-11 4-14 6z m34-45c-9 0-14 4-16 13l0 2 27 0c7 0 14 0 21 0 3 0 7 1 10 2l5 2c10 5 22 10 32 15 7 4 13 3 19-2l7-7-12-6c-15-7-30-14-45-20-1-1-3-1-4-1l0 0c-4 0-8 0-12 0-10 0-21 1-32 2z m111-22c-4-2-8-4-12-5-9-4-18-8-26-12-6-4-14-5-22-5-3 0-7 0-12 1-11 1-16 6-17 14l0 2 2 0c0 0 1 0 1 1 1 0 2 0 3 0 15-2 28 1 42 9 4 2 7 3 11 5 3 1 7 3 10 4 5 3 8 2 12-2 2-2 4-4 5-6l5-5z m147 45c-1-5-3-6-8-6-3 0-6 0-10 0l-18 0c-4 0-8 0-12 0l0 0c-5 0-9-2-13-6-15-21-36-38-61-54-2-1-4-1-6-2-1 0-2-1-3-1l-1 0-2 5 5 2c2 1 4 2 6 3 4 2 7 4 8 7 1 3 0 5-2 9-4 6-8 11-12 17-2 2-4 5-5 7l-2 2 3 1c0 1 1 1 2 2 5 2 8 5 9 8 0 2-1 6-4 11-3 4-7 9-11 13-1 2-3 4-4 6l-1 1 1 1c0 1 1 2 1 3 1 2 2 4 2 7 0 3-1 7-4 10-4 5-8 11-13 16-2 2-4 4-6 7l-1 1 1 1c5 5 2 10-2 16-13 22-34 35-59 35-8 0-16-1-24-4-2-1-4-1-6-2-8-2-16-4-25-4-3 0-6-2-7-5-2-3-1-7 1-10 6-9 16-11 28-7l6 2c6 2 12 5 19 6 16 4 29 0 40-13l2-2-2-1c-6-2-11-5-17-7-12-6-24-12-37-17-4-1-9-2-14-2-17 0-35 8-44 20-7 10-10 21-8 30 3 10 10 18 21 23 16 7 33 9 47 10 10 1 21 1 31 2l9 0c9 0 12 3 12 12 0 21-7 42-15 66-3 10-6 20-9 31-9 39 3 57 7 62 2 2 3 3 5 3 3 0 5-4 10-18 4-12 10-31 22-60 7-14 15-22 26-31 5-5 11-10 17-17 9-9 16-19 24-29 3-4 6-9 10-13l2-3c2-3 4-5 6-8 11-17 26-25 48-25l2 0c4 0 8 0 12 0 5 0 9 0 12 0l2 0c4 0 6-2 7-6 12-38 12-72 2-105z"/>
<glyph unicode="&#44;" d="M435 50c-7 0-13 3-19 7l-359 359c-10 10-10 28 0 39 11 10 29 10 39 0l359-359c10-10 10-28 0-39-6-4-12-7-20-7z m-358 0c-8 0-14 3-20 7-10 11-10 29 0 39l359 359c10 10 28 10 39 0 10-11 10-29 0-39l-359-359c-6-4-12-7-19-7z"/>
<glyph unicode="&#121;" d="M414 511l-318 0c-20 0-36-15-36-35l0-437c0-20 16-35 36-35l318 0c20 0 36 15 36 35l0 437c0 20-16 35-36 35z m-261-454l-3 0c-20 0-36 13-36 28 0 15 16 28 36 28l3 0c20 0 35-13 35-28 0-15-15-28-35-28z m0 86l-3 0c-20 0-36 13-36 28 0 15 16 28 36 28l3 0c20 0 35-13 35-28 0-15-15-28-35-28z m0 84l-3 0c-20 0-36 13-36 29 0 15 16 28 36 28l3 0c20 0 35-13 35-28 0-16-15-29-35-29z m105-170l-4 0c-20 0-35 13-35 28 0 15 17 28 35 28l4 0c19 0 35-13 35-28 0-15-16-28-35-28z m0 86l-4 0c-20 0-35 13-35 28 0 15 17 28 35 28l4 0c19 0 35-13 35-28 0-15-16-28-35-28z m0 84l-4 0c-20 0-35 13-35 29 0 15 17 28 35 28l4 0c19 0 35-13 35-28 0-16-16-29-35-29z m136-134c0-18-16-35-35-35l-4 0c-20 0-35 17-35 35l0 71c0 20 15 35 35 35l4 0c20 0 35-15 35-35z m-35 134l-4 0c-18 0-35 13-35 29 0 15 15 28 35 28l4 0c19 0 35-13 35-28 0-16-15-29-35-29z m47 152c0-26-21-47-47-47l-209 0c-26 0-47 21-47 47l0 39c0 26 21 47 47 47l209 0c26 0 47-21 47-47z m-55 56l-1 0c-15 0-28-13-28-28l0-21c0-16 13-28 28-28l1 0c16 0 28 12 28 28l0 21c1 15-12 28-28 28z m14-62l-27 0 0 47 27 0z m-80 62l-1 0c-16 0-28-13-28-28l0-21c0-16 12-28 28-28l1 0c15 0 28 12 28 28l0 21c0 15-13 28-28 28z m13-62l-27 0 0 47 27 0z m-54 53c-1 4-4 8-11 8l-4 0c-5 0-8-4-10-7-1-5-1-9-1-9l12 0 0-60 16 0-1 62c1 1 0 3-1 6z m-75-26c-2 1-4 2-6 2-1 0-1 0-1 0l-19 0 0 13 27 0c1 0 1 1 1 2l0 9c0 1 0 1-1 1l-11 0 0 9c0 1 0 1-1 1l-9 0c-1 0-2-1-2-1l0-9-3 0c-4 0-7-1-10-3-3-4-2-9-2-9l0-13c0-1 0-1 0-1 0-8 5-11 10-11 1 0 1 0 1 0l19 0 0-13-28 0c0 0-1-1-1-2l0-9c0-1 1-1 1-1l12 0 0-9c0-1 0-1 1-1l9 0c1 0 2 1 2 1l0 9 3 0c4 0 7 1 10 3 3 4 2 9 2 9l0 13 0 0c0 1 0 1 0 1 0 2 0 4-1 5-1 2-2 3-3 4z"/>
<glyph unicode="&#48;" d="M259 51c-113 0-205 92-205 205 0 113 92 205 205 205 113 0 203-92 203-205 0-113-92-205-203-205z m0 381c-98 0-178-80-178-176 0-98 80-176 177-176 97 0 176 80 176 176 1 96-79 176-175 176z m-84-162l167 0 0-28-167 0z"/>
<glyph unicode="&#48;" d="M259 51c-113 0-205 92-205 205 0 113 92 205 205 205 113 0 203-92 203-205 0-113-92-205-203-205z m0 381c-98 0-178-80-178-176 0-98 80-176 177-176 97 0 176 80 176 176 1 96-79 176-175 176z m-84-162l167 0 0-28-167 0z"/>
<glyph unicode="&#67;" d="M271 107l29-72 44 117c129-20 104-126 104-126l-3-3-363 0-3 3c0 0-25 106 104 126l44-117 29 72z m-74 348c25 18 58 19 65 19 9 0 39-1 66-19 20-15 36-31 44-69-8 46-24 72-44 87-25 19-57 19-66 19-9 0-40-2-65-19-24-19-46-56-49-126 3 69 25 91 49 108z m179-139c0 6 0 12 0 18 0-5 0-9 0-14-127 44-225 0-225 0l-3 0c0 3 0 5 0 6 0-3 0-7 0-10l0-1c-10-26 0-48 17-60 2-8 12-55 59-87 0 0 20-13 32-13l9 0c11-2 32 13 32 13 45 32 57 79 59 87 16 14 30 40 20 61z"/>
<glyph unicode="&#45;" d="M239 123c-7 0-14 3-19 8l-136 115c-7 6-11 14-11 23 0 9 4 18 11 23l136 116c12 11 32 9 43-4 11-13 9-32-4-43l-108-92 108-92c13-11 15-30 4-43-6-7-15-11-24-11z m163-27c-17 0-30 14-30 30 0 55-31 113-119 113l-149 0c-17 0-31 13-31 30 0 17 14 31 31 31l149 0c106 0 180-71 180-173 0-17-14-31-31-31z"/>
<glyph unicode="&#46;" d="M411 477l-307 0c-25 0-45-20-45-45l0-349c0-25 20-45 45-45l307 0c25 0 45 20 45 45l0 349c0 25-20 45-45 45z m-116-365c0-3-2-4-4-4l-159 0c-2 0-4 2-4 4l0 25c0 2 2 4 4 4l158 0c3 0 5-2 5-4l0-25z m0 59c0-3-2-4-4-4l-159 0c-2 0-4 2-4 4l0 25c0 2 2 4 4 4l158 0c3 0 5-2 5-4l0-25z m0 59c0-2-2-4-4-4l-159 0c-2 0-4 2-4 4l0 25c0 3 2 4 4 4l158 0c3 0 5-2 5-4l0-25z m0 60c0-3-2-5-4-5l-159 0c-2 0-4 3-4 5l0 25c0 2 2 4 4 4l158 0c3 0 5-2 5-4l0-25z m97-101c0-3-2-6-5-6l-49 0c-3 0-6 3-6 6l0 124c0 3 3 6 6 6l49 0c3 0 5-3 5-6z m-15 179l-239 0c-9 0-15 7-15 15 0 8 7 15 15 15l239 0c8 0 15-7 15-15 0-8-7-15-15-15z"/>
<glyph unicode="&#58;" d="M390 221l48 14 0 39-48 15-5 0c-3 11-9 22-14 33l5 6 23 43-28 28-43-23-6-5c-11 5-19 11-33 14l0 5-12 48-39 0-15-48 0-5c-14-3-22-9-33-14l-3 2-46 26-28-28 28-46c-5-14-11-22-14-36l-3 0-50-12 0-42 53-14c3-12 9-23 14-34l-2-3-26-43 28-28 46 28c11-5 19-11 34-14l0-3 14-50 42 0 14 53c12 3 23 9 34 14l6-5 42-23 29 28-23 43-6 6c6 11 12 19 15 33l2 0z m-133-43c-42 0-79 34-79 79 0 46 34 80 79 80 43 0 80-34 80-80 0-45-37-79-80-79z"/>
<glyph unicode="&#82;" d="M134 428l90 0 0-89-90 0z m141-29l96 0c8 0 14 6 14 14 0 8-6 14-13 14l-97 0c-8 0-14-6-14-14 0-8 6-14 14-14z m97-24l-97 0c-8 0-14-6-14-14 0-8 6-14 14-14l96 0c8 0 14 6 14 14 0 8-6 14-13 14z m-275 97l319 0 0-143 39 0 0 182-397 0 0-182 39 0z m358-176l-431 0 0-147c0-1 0-30 33-47l163-91c3-2 17-9 35-9 12 0 23 3 33 9l164 91c34 17 34 46 34 47l0 147z m-12-145c0-2-3-7-11-12l-164-91-2-2c-3-2-7-3-10-3-7 0-13 3-13 3l-1 1-1 0-162 92c-9 5-12 10-12 12l0 102 376 0z"/>
<glyph unicode="&#81;" d="M134 429l90 0 0-89-90 0z m141-29l96 0c8 0 14 6 14 14 0 8-6 14-14 14l-96 0c-8 0-14-6-14-14 0-8 7-14 14-14z m97-25l-97 0c-8 0-14-6-14-13 0-8 6-14 14-14l96 0c8 0 14 6 14 14 0 7-5 13-13 13z m-276 98l320 0 0-144 40 0 0 183-398 0 0-183 38 0z m360-176l-432 0 0-148c0-1 0-30 33-47l163-91c3-2 17-9 35-9 12 0 23 3 33 9l164 91c34 18 34 46 34 47l0 148z"/>
<glyph unicode="&#92;" d="M189 352l78-17 17 78-76 17z m211 41l-80 17c-3 0-7-1-9-4 0-1-1-2-2-4-1-4 2-9 5-10 1 0 2-1 3-1l79-17c0 0 0 0 1 0 1 0 1 0 2 0 4 0 8 3 9 7 0 6-3 10-8 12z m-8-33l-81 17c-3 1-6-1-8-3-1-1-2-3-3-5 0-4 2-8 5-10 1 0 2-1 3-1l79-17c0 0 0 0 1 0 1 0 1 0 2 0 4 0 9 4 9 8 0 5-2 9-7 11z m-90 10l0-1z m82-43l-78 17-2 1c-5 1-10-2-11-7 0-1 0-3 0-3l0-1c1-4 3-6 7-7l10-3 69-14c0 0 1 0 1 0 0 0 1 0 1 0 4 0 8 3 9 7 2 4-1 8-6 10z m-219 184l-11-49-128-29 29-127 35 0-23 102 78 17-8-37-38-12 13-70 42 0 36 164 254-57-25-107 35 0 31 133z m280-239l-402 0 0-135c0-1 0-28 30-45l151-83c2-2 15-9 32-9 11 0 21 3 31 9l150 83c31 17 31 43 31 45l0 134-23 0z"/>
<glyph unicode="&#52;" d="M158 287l-95 23 9-92 68-16z m12 59c1 16 4 32 10 46l-87-9c-20-2-35-20-33-40l2-14 99-24z m-12-148l105-26 0 38c-19 7-37 18-52 33-11 11-20 24-27 38l-8 2z m-23-108l184 20c14 1 26 10 31 23l-196 47z m-61 109l7-77c1-19 17-33 35-33l20 95z m235 4c-9-1-18 0-27 2l0-37 70-17-5 57c-12-4-25-5-38-5z m152 13l-41 41-27 26c28 40 24 96-11 131-20 20-45 30-73 30-27 0-53-10-72-30-5-5-10-11-14-17-10-16-16-35-16-55 0-18 5-36 13-51 2-4 5-7 8-11 2-4 6-7 9-11 0 0 1-1 1-1 8-7 16-13 25-18 4-1 6-3 10-4 3-1 6-2 9-3 9-3 18-4 28-4 10 0 20 1 30 4 1 1 3 1 4 2 4 1 7 3 11 4 4 2 8 4 11 7 1 0 1 1 2 1l67-67c4-3 9-5 13-5 5 0 10 2 13 5 7 7 7 19 0 26z m-105 79c-5-5-10-9-16-12-9-5-20-7-31-7-10 0-19 2-28 6-3 1-6 3-9 5-3 2-6 5-9 7 0 1 0 1-1 1-12 13-19 29-19 47 0 17 7 34 19 46 7 7 15 12 24 16 8 2 15 4 23 4 18 0 34-7 47-20 26-25 26-67 0-93z"/>
<glyph unicode="&#95;" d="M390 340l-262 0c-13 0-24 10-24 24 0 13 10 24 24 24l262 0c13 0 24-11 24-24 0-14-11-24-24-24z m0-216l-262 0c-13 0-24 10-24 24 0 13 10 24 24 24l262 0c13 0 24-11 24-24 0-14-11-24-24-24z m0 108l-262 0c-13 0-24 10-24 24 0 13 10 24 24 24l262 0c13 0 24-11 24-24 0-14-11-24-24-24z"/>
<glyph unicode="&#62;" d="M104 326l46 0 0-45-46 0z m86 0l46 0 0-45-46 0z m86 0l46 0 0-45-46 0z m86 0l46 0 0-45-46 0z m-258-84l46 0 0-45-46 0z m86 0l46 0 0-45-46 0z m86 0l46 0 0-45-46 0z m86 0l46 0 0-45-46 0z m-258-85l46 0 0-45-46 0z m86 0l46 0 0-45-46 0z m86 0l46 0 0-45-46 0z m86 0l46 0 0-45-46 0z m-357 325l0-452 501 0 0 452z m461-41l0-32-420 0 0 32z m-420-370l0 297 420 0 0-297z"/>
<glyph unicode="&#64;" d="M386 406l-261 0c-13 0-25-9-25-18 0-10 7-27 16-38l97-124c8-10 15-30 15-44l0-59c0-13 12-25 25-25l6 0c13 0 25 12 25 25l0 59c0 13 7 34 15 44l97 124c9 11 16 28 16 38 0 9-12 18-26 18z m-254-41l53 0 50-134z"/>
<glyph unicode="&#111;" d="M256 472c-120 0-216-96-216-216 0-120 96-216 216-216 120 0 216 96 216 216 0 120-96 216-216 216z m55-302c-11-9-23-14-39-16l1-10c0-6-2-13-6-17-3-2-6-3-9-3-8 0-15 8-15 20 0 6-6 13-12 15-2 0-32 9-52 26l-3 4 12 14c7 8 21 10 30 4 0 0 16-12 31-14l16-1c7 1 13 3 17 6 4 3 6 7 6 12 0 5-2 8-4 11-3 2-8 5-20 9l-2 1c-8 2-22 6-30 9-1 0-21 7-30 15-11 9-16 22-16 39 1 17 7 30 19 41 11 10 22 14 37 16l0 8c0 11 7 20 15 20 4 0 7-1 10-4 3-3 5-9 5-15 0-5 5-11 11-13 1 0 24-5 41-18l4-3-11-15c-6-9-20-12-29-7 0 1-10 6-23 8-4 1-9 1-12 1l-3 0c-7 0-13-2-16-5-4-3-5-7-6-12 0-4 2-8 4-10 2-2 7-5 18-9l2-1c8-2 14-4 15-4 0 0 1 0 16-5 1-1 21-7 31-16 11-9 16-23 16-39 0-17-7-31-19-42z"/>
<glyph unicode="&#63;" d="M174 373l0-231 105 58 100 58-100 58z m81 133c-136 0-248-111-248-248 0-137 112-248 248-248 137 0 249 111 249 248 0 137-111 248-249 248z m0-471c-122 0-222 100-222 223 0 122 100 222 222 222 123 0 223-100 223-222 1-123-100-223-223-223z"/>
<glyph unicode="&#91;" d="M311 407l-39-55 85-65-352 0 0-67 352 0-85-59 39-50 198 148z"/>
<glyph unicode="&#93;" d="M502 271l-347 0 79 68-36 54-189-138 189-138 36 41-80 52 348 0z"/>
<glyph unicode="&#94;" d="M365 379c-13 11-29 20-47 27-17 6-36 9-56 9-15 0-29-1-42-5-14-4-26-9-38-15-11-6-22-14-32-23-9-9-17-19-24-30-6-12-12-24-16-36-4-13-5-27-5-41 0-21 4-41 12-59 8-18 18-34 32-48 13-12 30-23 49-31 19-7 40-11 61-11 11 0 22 1 32 3 11 2 21 5 30 8 9 3 18 8 26 13 8 5 15 10 22 17l1 1 0 2c1 6 0 10-2 11-2 3-6 4-10 4-2 0-4 0-4 0l-2 0c-11-9-25-17-40-22-15-5-33-8-50-8-13 0-25 1-36 4-11 2-21 6-30 12-9 5-18 11-25 18-7 7-13 15-18 24-5 9-9 19-12 29-3 10-4 22-4 33 0 11 1 22 4 33 2 10 7 20 12 29 5 9 12 18 19 25 7 7 16 14 25 19 9 6 19 10 29 13 11 3 23 5 34 5 17 0 33-3 47-7 15-5 27-12 37-21 10-9 18-19 23-32 6-12 8-26 8-40 0-11-1-21-5-31-3-9-7-18-12-25-4-7-10-13-16-18-7-4-12-6-19-6-5 0-9 1-11 3-2 2-2 6-2 10 0 3 0 7 0 11 1 5 2 9 4 16 1 6 3 13 5 21l22 82-35-2-3-13c-2 3-5 6-9 9-4 3-8 5-14 7-12 3-26 3-40-2-7-2-14-6-22-10-6-5-12-10-18-16-6-7-10-13-14-21-4-7-8-15-10-23-2-8-3-17-3-26 0-11 1-21 5-29 3-8 8-15 13-21 6-6 12-11 19-13 12-5 25-6 38-2 5 1 10 3 15 6 5 2 10 6 14 10 1 1 1 2 2 4 3-7 6-12 11-16 15-15 40-15 62-3 10 6 20 14 28 23 8 10 15 21 20 34 5 13 7 27 7 42 0 19-4 36-11 52-8 12-18 26-31 37z m-109-159c-6-4-14-6-21-6-5 0-9 0-13 2-4 2-7 4-9 6-3 4-5 7-6 11-1 4-2 9-2 14 0 9 1 18 5 27 3 8 7 17 12 24 4 8 11 14 18 18 7 5 14 6 22 6 6 0 11 0 14-2 3-2 6-3 8-6 2-2 4-5 5-9 1-4 1-9 1-14 0-9-1-19-4-29-4-9-8-17-12-25-5-7-11-12-18-17z m256 241c0 24-19 43-43 43l-426 0c-24 0-43-19-43-43l0-410c0-24 19-43 43-43l426 0c24 0 43 19 43 43z m-32-407c0-3-2-6-6-6l-436 0c-4 0-6 2-6 6l0 412c0 4 2 6 6 6l436 0c4 0 6-2 6-6z"/>
<glyph unicode="&#96;" d="M153 318c0 0 0 0 1 0 0 0 0-1 0-1 0 0 1-1 1-2 0-1 1-1 2-1 1-1 1-2 1-2 1-1 2-2 3-2 0 0 5-6 8-6 1-7 11-52 55-82 0 0 20-14 31-14l8 0c11 0 31 14 31 14 42 28 53 71 55 80 1 1 5 4 8 8 1 0 1 1 2 2 1 1 1 2 2 2 1 0 1 0 1 1 0 1 1 1 1 2 0 1 1 1 1 1 0 0 0 0 0 0 2 5 4 9 6 14 0 4 1 8 1 11 0 3 0 7-1 10 0 3-1 5-2 8-1 2-2 5-3 6-1 2-3 7-4 7-1 1-1 4-1 4 2 12 2 22 2 32 0 11-3 19-4 27-3 8-5 15-8 21-4 7-8 12-11 16-4 5-8 9-11 12-4 4-7 6-10 8-4 3-6 4-8 4-1 1-3 2-3 2-10 4-19 7-27 9-8 1-17 3-22 3-6 0-11 0-15-2-4 0-7-2-9-4-3-1-5-4-7-5-1-2-2-4-3-6-1-1-1-3-2-5 0 0 0-1 0-1 0 0 0 0-3 0-1 0-5 0-8-1-3-1-6-2-11-4-4-2-8-4-12-7-4-3-9-7-12-13-4-6-7-12-10-20-2-8-4-18-5-29-1-11-1-24 0-39 0 0-1 0-1-1 0-1-2-1-2-2-1-1-3-3-4-5 0-2-2-4-3-6-1-3-1-5-2-8-1-4-1-7-1-10 0-3 1-7 2-11-1-6 0-10 3-15z m190-110l-43-113-34 81-20 0-34-81-43 113c-110-15-129-76-129-108l0-100 432 0 0 98c0 32-17 95-129 110z"/>
<glyph unicode="&#123;" d="M503 421c-9 11-25 13-38 13l-368 0c-2 9-3 19-5 29-1 4-2 12-2 12-2 13-13 21-26 21 0 0-32 1-45 1-9 1-19-7-19-18 0-10 8-18 18-19 9 0 26 0 37 0 0-2 1-2 1-3 9-52 18-99 26-144 8-47 17-95 26-148 6-32 24-48 55-48 61 0 107 0 155 0 38 0 77 0 124 0 11 0 19 7 19 17 0 11-9 18-19 18-108 0-171 1-279 2-12 0-16 2-18 16-2 9-3 18-4 27l285 0c27 0 52 5 58 45 4 25 9 48 13 71 4 21 8 42 12 65 2 14 5 30-6 43z m-30-23c0-3-1-8-2-12-3-20-7-42-10-58l-93 0 0 72 97 0c4 0 6-2 8-2z m-233-70l0 72 104 0 0-72z m104-24l0-70-104 0 0 70z m-128 96l0-72-99 0c-4 24-9 48-13 72z m-94-96l94 0 0-70-82 1c-4 23-8 45-12 69z m304-70l-58 0 0 70 89 0c-3-16-7-36-10-56-2-13-2-14-21-14z m-36-146c-21 0-40-18-39-39 0-21 19-40 40-40 22 0 39 18 39 40 0 21-17 39-40 39z m-211 0c-22 0-39-17-39-39 0-22 18-40 38-40 22 0 40 19 40 41 0 20-17 37-39 38z"/>
<glyph unicode="&#124;" d="M146 310c0 0 0-1 0 0 0 0 0-1 1-1 0 0 0-1 1-1 0 0 1-1 1-2 0 0 1 0 1-1 1-1 1-1 2-2 1-1 2-1 2-1 4-4 6-5 7-5 0 0 1 0 1 0 0-3 0-4 1-6 4-14 16-47 51-71 0 0 18-11 29-11l7 0c11 0 30 11 30 11 41 29 50 71 52 78 1 0 2 0 2 0 1 1 2 1 3 2 1 1 1 2 2 2 1 1 2 2 2 2 1 1 1 2 1 2 1 0 1 0 2 1 0 1 1 1 1 2 0 0 1 1 1 1 0 0 0 0 0 0 2 5 4 9 4 13 1 4 2 8 2 11 0 4 0 7-1 10 0 2-1 2-1 3-116 42-206-3-206-3l-2 0c-1 0-1-2-2-3-1-3-1-6-1-9 0-3 1-6 2-10 1-4 3-8 5-12z m318-247c0 0-2 53-61 70l-91 33 0 38-68-37-68 36 0-38-72-32c-60-17-60-70-60-70l-12-62 0-1 446 0z"/>
<glyph unicode="&#125;" d="M306 481c-22 17-51 18-59 18 1 0 1 0 1 0l-3 0c0 0 1 0 1 0-8 0-36-1-59-18-25-20-46-43-46-126 0-4 0-4 0-9l3 0c0 0 90 44 206 0 2 92-16 114-44 135z m-18-63l-31 0 0-31-23 0 0 31-32 0 0 23 32 0 0 30 23 0 0-30 31 0z"/>
<glyph unicode="&#126;" d="M503 378c-13 13-35 13-49 0l-197-192-198 192c-13 14-35 13-49 0-13-14-12-36 1-49l246-239 245 239c15 13 15 35 1 49z"/>
<glyph unicode="&#57344;" d="M511 392c-1 4-1 8-1 11-1 3-2 7-4 11-1 4-3 8-4 12-3 6-6 12-10 17-4 5-7 11-12 15-6 7-13 13-21 18-5 2-9 6-13 8-6 2-12 5-18 7-4 2-9 3-13 4-4 1-7 2-11 3-2 0-3 0-6 0-3 0-5 1-8 1-11 0-22 1-32-1-4 0-8 0-12-1-4-1-7-2-11-3-5-2-9-4-13-5-4-2-9-4-13-6-7-3-13-7-18-11-4-4-8-7-13-11-1-2-4-4-5-6-3-2-5-5-7-8-2-2-4-5-6-6-2-2-3-3-5-6-3 3-5 7-9 10-4 5-8 11-14 16-6 6-13 13-21 17-4 3-7 5-11 7-6 2-11 5-17 7-4 2-8 2-11 3-3 1-6 1-9 2-3 1-7 1-10 1-5 1-10 1-14 1-4 0-9 0-13-1-2 0-5 0-8 0-2 0-4 0-7-1-5-1-11-3-16-4-5-1-11-3-17-5-6-2-13-6-20-10-6-4-12-8-18-13-5-4-10-9-14-14-2-4-5-8-8-13-4-6-8-12-10-20-1-3-2-7-3-10-1-4-2-8-3-11 0-6 0-11-1-16 0-5 0-10 0-14 1-6 1-13 2-20 1-4 2-8 3-11 1-3 2-6 3-8 1-2 1-5 2-7 2-4 3-9 5-13 2-4 3-7 5-11 2-6 5-12 8-18 4-8 9-16 13-23 1-3 4-7 6-10 2-4 6-8 8-12 4-6 7-12 11-16 4-5 7-10 11-15 5-5 10-11 15-17 3-4 7-8 10-12 3-4 7-7 10-10 2-3 5-6 8-9 3-3 7-7 10-10 3-3 5-5 7-7 4-4 7-6 9-9 5-4 9-9 14-13 13-12 25-24 38-36 10-9 19-18 31-27 4-3 8-7 12-10 5-3 11-6 16-9 1-1 2-1 3 0 30 28 60 56 90 84 5 4 9 8 14 12 3 3 5 6 9 9 2 3 4 5 7 7 4 4 7 8 11 12 4 4 8 8 11 12 3 3 6 6 9 9 3 4 6 7 10 11 4 5 8 9 11 14 5 6 9 12 14 18 6 8 12 17 18 26 4 6 7 11 10 18 4 8 9 15 13 23 3 6 6 13 9 18 1 4 3 9 5 13 1 4 2 8 4 13 0 3 1 6 2 9 1 3 1 5 2 8 0 4 1 9 1 14 1 9 2 18 0 28z"/>
<glyph unicode="&#57345;" d="M442 504l-260 0c-39 0-70-26-70-64 0-38 31-64 70-64l92 0-250-255c-27-27-27-73 0-100 14-14 31-22 49-22 17 0 37 7 50 20l253 251 0-92c0-39 30-70 68-70 38 0 68 31 68 70l0 260c0 38-31 66-70 66z"/>
<glyph unicode="&#57347;" d="M202 210c4 4 8 6 9 6l7 0c1 0 4-2 8-6 38-53 92-53 143-42 23 6 34 25 42 48 8-3 19 2 18 17-1 11 0 23 0 35 0 10 3 22-15 19-2 0-6 7-8 11-16 47-45 69-96 71-63 1-16-2-79-2l-33 0c-63 0-16 4-79 2-50-2-80-26-96-71-1-5-5-12-8-12-17 3-14-9-14-19-1-11 0-23 0-34-1-15 9-19 17-16 8-23 20-44 43-50 50-10 104-9 141 43z m32 136c27 0 52 1 78 0 55-4 78-41 71-111-3-34-23-44-79-38-1 0-2 0-2 0-33 4-65 34-68 67-1 26 0 54 0 82z m-107-149c-1 0-1 0-2 0-56-6-76 3-79 38-7 71 16 107 71 111 25 1 50 0 77 0 0-28 2-56 0-82-3-33-35-63-67-67z m380 297c1 5-2 8-4 8-1 1-5 3-9-1l-37-29c-4-3-7-10-6-14l15-60c1-2 7-7 7-8l0-200c0-29-15-53-34-71-37-34-129-35-154-35-7 32-36 56-70 56-38 0-70-31-70-70 0-38 31-69 69-69 32 0 58 21 67 49 12 0 37 0 41 0 14 0 44 2 73 11 25 7 50 19 66 33 26 24 44 56 44 96l0 206c0 2-3 2-3 4z m-294-465c-23 0-41 18-41 41 0 22 18 40 41 40 22 0 41-18 41-40 0-23-19-41-41-41z"/>
<glyph unicode="&#57348;" d="M349 190c-6 0-12 1-18 2-4-3-9-7-13-10-12-8-34-21-56-20l-6 0c-1 0-2 0-2 0-21 0-43 12-54 19-6 4-10 8-15 12-13-2-20-3-20-3-146-22-117-187-117-187l4-3 410 0 4 3c0 0 29 167-117 187z m-196 128c0 0 0 0 1 0 0 0 0-1 0-1 0 0 1-1 1-2 0-1 1-1 2-1 1-1 1-2 1-2 1-1 2-2 3-2 0 0 5-6 8-6 1-7 11-52 55-82 0 0 20-14 31-14l8 0c11 0 31 14 31 14 42 28 53 71 55 80 1 1 5 4 8 8 1 0 1 1 2 2 1 1 1 2 2 2 1 0 1 0 1 1 0 1 1 1 1 2 0 1 1 1 1 1 0 0 0 0 0 0 2 5 4 9 6 14 0 4 1 8 1 11 0 3 0 7-1 10 0 3-1 5-2 8-1 2-2 5-3 6-1 2-3 7-4 7-1 1-1 4-1 4 2 12 2 22 2 32 0 11-3 19-4 27-3 8-5 15-8 21-4 7-8 12-11 16-4 5-8 9-11 12-4 4-7 6-10 8-4 3-6 4-8 4-1 1-3 2-3 2-10 4-19 7-27 9-8 1-17 3-22 3-6 0-11 0-15-2-4 0-7-2-9-4-3-1-5-4-7-5-1-2-2-4-3-6-1-1-1-3-2-5 0 0 0-1 0-1 0 0 0 0-3 0-1 0-5 0-8-1-3-1-6-2-11-4-4-2-8-4-12-7-4-3-9-7-12-13-4-6-7-12-10-20-2-8-4-18-5-29-1-11-1-24 0-39 0 0-1 0-1-1 0-1-2-1-2-2-1-1-3-3-4-5 0-2-2-4-3-6-1-3-1-5-2-8-1-4-1-7-1-10 0-3 1-7 2-11-1-6 0-10 3-15z"/>
<glyph unicode="&#38;" d="M504 114c0 4 0 6-1 9 0 0 0 1 0 1 0 3-1 6-1 9 0 0 0 1 0 1-1 3-2 5-3 8 0 0 0 1 0 1-9 29-30 51-58 64-6 3-11 4-17 5-14 2-27 4-41 5-5 0-9 0-14 0-5 0-10 0-15 0l-11 0 0 87 11 0c7 0 12 0 18 0 6 0 10 0 15 0 6 0 11 0 17 1 22 2 42 9 58 21 1 1 2 1 2 2 2 2 3 2 5 4 1 2 3 2 5 4 0 1 0 1 1 2 14 14 23 32 27 51 0 0 0 1 0 1 1 2 1 5 1 8 0 0 0 1 0 3 0 1 0 4 0 5 0 2 0 4 0 6 0 1 0 2 0 3 0 3-1 5-1 8 0 1 0 1 0 2 0 3 0 5-1 9 0 0 0 0 0 1-1 3-2 6-3 8 0 1 0 2 0 3-1 1-2 4-3 5-1 2-1 3-2 6-1 1-1 1-2 2-18 31-51 51-89 53l-4 0c-56 0-100-46-103-106-1-10 0-20 0-31 0-5 0-10 0-17l0-11-87 0 0 11c0 7 0 13 0 19 0 6 0 12 0 17-2 16-3 32-6 46-15 42-52 72-97 72l-3 0c-5 0-10-1-15-2-13-2-27-8-39-15 0 0-1-1-1-1-1-1-3-2-5-3-1-1-3-2-4-3 0-1-1-2-2-2-2-2-4-4-6-6 0 0 0 0 0-1-14-13-24-31-28-50 0-2 0-3 0-4 0-2-1-4-1-6 0-1 0-2 0-4 0-2 0-5 0-6 0-1 0-2 0-3 0-3 0-5 1-8 0 0 0-1 0-1 0-3 0-6 1-9 0 0 0-1 0-1 1-3 2-5 3-9 0 0 0 0 0 0 8-29 30-52 58-64 6-3 11-4 17-5 13-3 27-4 41-5 4 0 9 0 14 0 5 0 10 0 14 0l12 0 0-88-12 0c-6 0-12 0-17 0-6 0-11 0-15 0-6 0-12 0-17-1-23-2-43-9-59-21 0-1-1-1-1-2-2-2-3-2-5-4-2-2-3-2-5-4-1-1-1-1-1-2-14-14-24-32-28-51 0 0 0-1 0-1 0-2 0-5 0-8 0 0 0-1 0-3 0-1 0-4 0-5 0-2 0-4 0-6 0-1 0-2 0-3 0-3 0-5 0-8 0-1 0-1 0-2 1-3 1-5 2-9 0 0 0 0 0-1 1-3 2-6 2-8 0-1 1-2 1-3 1 0 2-2 3-4 0-2 1-4 2-6 1-1 1-2 2-2 17-32 50-52 88-54l3 0c56 0 100 46 103 106 1 10 0 20 0 31 0 5 0 10 0 17l0 11 87 0 0-11c0-7 0-13 0-19 0-6 0-12 0-17 2-16 3-32 7-46 14-42 52-72 96-72l4 0c4 0 9 1 14 2 14 2 28 8 39 15 1 0 1 1 2 1 1 0 3 2 5 3 1 1 3 2 4 3 0 1 1 2 2 2 2 1 4 4 6 5 0 0 0 0 0 1 14 14 24 32 28 51 0 2 0 3 0 4 0 2 1 4 1 6 0 1 0 2 0 4 0 2 0 5 0 6 1 2 1 3 1 3z m-350 234c-7 0-13 0-20 0-5 0-10 0-16 0-7 0-13 0-20 1-24 2-44 19-52 41 0 0 0 0 0 0 0 1 0 3 0 4 0 0-1 2-1 3 0 1 0 1 0 1 0 2-1 4-1 5 0 3 0 7 0 9 2 30 27 54 56 56 2 0 2 0 4 0 29 0 53-20 58-48 1-2 1-4 2-6 1-5 1-10 1-14l0-3c0 0 0-1 0-1 0-8 0-16 0-25l0-24-11 0z m10-240c0-4-1-8-2-12-3-7-6-14-10-19 0 0 0 0 0-1-11-14-28-24-47-24-2 0-3 0-4 0-23 2-42 16-51 35 0 0 0 1-1 1-1 2-1 2-2 4 0 1 0 1-1 2 0 1 0 2 0 4 0 0 0 0 0 1 0 2-1 3-1 4 0 1 0 2 0 3 0 0 0 1 0 2 0 0 0 1 0 1 0 0 0 1 0 1 0 0 0 2 0 3 0 0 0 1 0 1 1 29 23 55 53 58 7 1 13 1 21 1 6 0 11 0 17 0 6 0 12 0 18 0l12 0 0-12c0-7 0-12 0-18-1-12-1-23-2-35z m129 110l-83 0 0 84 1 0 0 0 82 0z m47 194c0 4 1 8 2 12 3 7 6 14 10 19 0 0 0 0 0 1 11 14 28 24 47 24 2 0 3 0 4 0 23-2 42-16 51-35 0 0 0-1 1-1 1-2 1-2 2-4 0-1 0-1 1-2 0-1 0-2 0-4 0 0 0 0 0-1 0-2 1-3 1-4 0-1 0-2 0-3 0 0 0-1 0-2 0 0 0-1 0-1 0 0 0-1 0-1 0 0 0-2 0-3 0 0 0-1 0-1-1-29-23-55-53-58-7-1-13-1-21-1-6 0-11 0-17 0-6 0-12 0-18 0l-12 0 0 12c0 7 0 12 0 18 1 13 1 24 2 35z m120-304c-2-30-27-54-56-56-2 0-2 0-4 0-29 0-53 20-58 48-1 2-1 4-2 6-1 5-1 10-1 14l0 3c0 0 0 1 0 1 0 8 0 16 0 25l0 24 11 0c7 0 13 0 20 0 5 0 10 0 16 0 7 0 13 0 20-1 24-2 44-19 52-41 0 0 0-1 0-1 0 0 0-2 0-3 0-1 1-2 1-3 0-1 0-1 0-2 0-1 1-3 1-4 0-4 0-7 0-10z"/>
<glyph unicode="&#39;" d="M457 487l-402 0c-30 0-55-25-55-55l0-352c0-30 25-55 55-55l402 0c30 0 55 25 55 55l0 352c0 30-25 55-55 55z m-110-329l-144 0 34-25-15-21-80 59 80 59 15-20-34-25 144 0z m-57 125l-16 21 34 25-144 0 0 25 144 0-34 25 16 21 79-59z"/>
<glyph unicode="&#60;" d="M480 252c0 27-20 50-46 54 0 1 0 3 0 5-5 108-71 188-185 193-103 4-171-75-184-173-2-9-2-19-3-29-17-8-30-28-30-49 0-30 24-55 54-55 1 0 1 0 2 0l-9 106c1 102 69 190 170 184 107-6 169-82 169-188l-5-102c0 0 7-5 8-6 1-1 1-1 1-2l-6-24c5 1 9 2 13 2 1-8 1-17-1-26-3-10-10-19-19-26-3 2-7 3-11 3-12 0-22-9-22-21 0-12 10-22 22-22 12 0 21 10 21 22 0 2 0 4-1 5 13 10 21 22 25 35 3 12 3 24 1 33-2 12-7 23-10 28 24 7 46 28 46 53z m-120 10c-26 6-70 15-112 15-43 0-86-7-111-12 11-11 51-32 135-29 0 0-30 6-54 34 0 0 85-40 142-8z m34 2c-1 0-2-4-4-4 0 0-1-2-2-2-1 0-2 0-3 0-2 0-7 0-11 1 4-6 10-11 8-33-12-68-42-100-42-100-12-12-27 0-27 0-27 26-60 0-60 0 0 0-35 26-60 0 0 0-15-13-27 0 0 0-42 45-49 112 1 8 3 17 8 24-4-1-7-2-8-2-2 0-3-1-4-1-1 0-2 0-3 0-1 0-1 0-2 0-2 0-4 1-6 1 0-16 4-32 11-54 4-16 13-32 21-61 2-22 13-99 48-115l70-30 70 30c32 16 44 84 48 112 11 51 24 82 24 122z m-141-182c0 0-29 6-47 22l93 0c-21-24-46-22-46-22z m-148 187c1 0 1 0 1 0 1 0 1 1 2 1 1 0 2 2 3 2 1 0 3-2 6-1 4 1 9 1 17 3 2 0 4 0 4 0 1 0 2 0 3 0 26 4 66 11 107 11 44 0 91-10 118-15 0 0 3 0 3-1 0-1 2-1 4-2 8-1 13-3 15-3 1 0 1 0 2 0 0 0 0 0 0 0 0 0 3 0 3 0 1 0 1 0 2 1 1 0 2 1 2 1 1 0 1 0 1 0 1 0 1 1 2 1 0 0 1 1 1 1 0 0 1 1 1 1 0 0 0 1 0 1 0 0 1 0 1 1 0 1 0 1 1 2 0 1 0 1 0 1 0 1 0 1 0 2 0 1 0 1 0 2 0 0 0 0 0 1 0 1 0 1 0 2 0 1 0 1 0 1 0 1 0 1 0 2 0 1 0 1 0 2 0 0 0 0 0 1 0 1 0 1 0 2 0 1 0 1 0 1 0 0 0 0 0 1 0 0 0 1 0 1 0 0 0 1 0 1 0 0 0 1 0 1 0 0 0 0 0 0 0 0 0 1 0 1 0 0-2 1-6 2-1 0-2 0-3 1-7 1-17 4-28 7-13 3-25 7-36 11-3 1-6 2-9 3-1 0-3 1-4 1-2 1-4 2-6 2-2 1-2 1-4 2-2 1-4 2-6 2-2 0-4 0-4 0-3 1-4 1-7 2-1 0-3 1-5 1-1 1-4 1-5 1-2 0-3 1-5 1-2 0-4 1-6 1-1 0-3 0-4 1-2 0-4 0-6 1-2 0-3 0-5 0-1 0-1 0-2 0-3 0-4 0-6 0-1 0-4 0-5 0-1 0-2 0-3 0-1 0-3 0-5 0-1 0-4 0-5-1-2 0-3 0-5-1-2 0-4-1-6-1-1 0-3-1-4-1-2 0-4 0-6-1-2 0-3-1-5-1-2-1-4-1-6-2-2 0-3 0-4 0-3-1-4-2-7-2-1-1-2-1-4-2-2 0-4-1-6-2-1 0-2-1-3-1-3-1-7-2-10-3-3-2-7-2-11-4-8-2-18-5-26-7-3-1-6-2-9-3-7-1-14-3-16-3-2 0-2 0-2 0 0 0 0 0 0-1 0 0 0 0 0 0 0 0 0-1-1-1 0 0 0-1 0-1 0-1 0-1 0-2 0 0 0 0 0 0 0-1 0-1-1-2 0 0 0-1 0-1 0-1 0-1 0-1 0 0 0-1 0-1 0-1 0-1 0-2 0 0 0-1 0-1 0-1 0-1 0-2 0-1 0-1 0-2 0 0 0 0 0-1 0-1 0-1 0-2 0-1 0-1 0-1 0-1 0-1 0-1 0-1 0-1 1-2 0 0 0-1 0-1 0 0 1 0 1-1 0 0 1-1 1-1 0 0 1-1 1-1 0 0 1-1 1-1 1 0 1 0 2 0 0-1 0-1 1-1z m149 73c23 0 49-6 81-18 9-3 22-7 34-10 9-3 19-5 26-8 2 0 3 0 3 0 0 44-12 118-92 146l-56 18-63-18c-69-27-84-100-86-144 1 0 1 0 3 1 10 1 36 7 55 14 1 1 3 1 3 2 20 7 37 13 52 15 0 0 0 0 0 0-4 1-8 2-10 5-2 2-4 5-4 9-1 3-1 6-1 9 0 3-1 7-1 9 0 2 0 6 0 8 0 2-1 5-1 7 0 3-1 6-1 8 0 3-1 5-1 7 0 3-1 5-1 8 0 2 0 4 0 7-1 7 4 14 12 17 1 0 4 0 5 0 3 0 5 1 7 1 2 0 4 0 6 1 2 0 4 0 6 1 1 0 4 0 5 1 2 0 4 0 6 0 1 0 4 0 5 1 2 0 4 0 6 1 2 0 4 0 6 1 1 0 4 0 5 1 2 0 3 0 4 0l4-37c-4 4-9 5-14 4-6-2-10-5-11-11-4 5-8 8-14 8-6 0-10-2-14-7 0 1 0 1 0 2 0 0 0 1 0 1 0 0 0 0 0 1 0 1-1 3-3 3 0 0-1 0-1 0-1 0-2-2-2-4 0 0 1-8 2-16 1-17 4-39 4-44 0 0 0 0 0 0l6 0 0 1-4 34c3-3 11-3 11-3 7 0 13 3 15 9 4-5 14-6 15-6 5 0 9 2 13 8 0-1 0-2 0-3 0-1 0-2 2-2 2-1 2 0 3 1 1 1 1 1 1 2 0 1 0 1 0 2 0 0 0 1 0 1l0 1c0 1 0 3 0 3 0 1 0 2 0 3l-1 9c0 0 0 1 0 2 0 1 0 2 0 2 0 1 0 2 0 3 0 1 0 1 0 2 0 1 0 2 0 3 0 0 0 1 0 2 0 1 0 2 0 2 0 1 0 2 0 3l-1 13c0 0 0 1 0 2 0 1 0 2 0 2l-1 7c1 0 1 0 2 0 1 0 2 0 3 0 5 1 11-3 13-7 2-3 2-5 3-8 0-2 0-4 0-7 0-2 1-5 1-7 0-2 1-5 1-7 0-3 1-4 1-7 0-2 1-4 1-6 0-2 0-4 0-6 0-3 1-4 1-7 0-2 1-4 1-6 0-3 1-4 1-7 0-1 0-3 1-5 0-3 0-4 0-7 0-1 0-3 1-5 0-1 0-2 0-2-19-1-37-4-57-5 1 0 2 0 3 0-3-4 0-4 1-4z m-13 41c-2-3-4-5-8-5-6-1-11 3-12 8 0 1 0 1 0 2 0 1 0 1 0 2 0 4 2 8 6 9 5 3 11 1 13-4 2-4 2-8 1-12z m29 2c-3-3-5-4-9-4-4 0-7 1-9 5-2 4-2 8-1 12 2 3 4 4 7 5 6 1 12-2 13-9 2-4 1-7-1-9z m-4-17c1 2 0 2 0 3-2 1-3 0-4-1 0 0 0-1-1-1-4-6-12-7-19-5-2 1-4 2-5 4-1 1-3 1-3 0-1-1-1-2 0-3 0-1 0-1 1-2 4-4 9-6 15-6 3 0 5 1 8 1 4 3 7 6 8 10z"/>
<glyph unicode="&#57346;" d="M375 358l-119 121-119-121 101 0 0-325 36 0 0 325z"/>
<glyph unicode="&#57349;" d="M51 137l-16 0 0 287c0 7 6 13 12 13l421 0c7 0 13-6 13-13l0-287-16 0 0 284-414 0z m397-8l-380 0 0 273 380 0z m-370 11l360 0 0 252-360 0z m280 181l-255 0 0 20 255 0z m0-62l-255 0 0 20 255 0z m0-62l-255 0 0 20 255 0z m123-77l-446 0 0 37 446 0z m-83 73l-14 14c-3 2-3 6 0 9 2 3 6 3 9 0l3-3 11 16c2 3 6 4 9 2 3-2 4-6 2-9z m0 62l-14 13c-3 3-3 7 0 10 2 2 6 2 9 0l3-3 11 16c2 3 6 4 9 2 3-2 4-6 2-9z m0 62l-14 13c-3 3-3 7 0 10 2 2 6 2 9 0l3-3 11 16c2 3 6 4 9 2 3-3 4-7 2-9z"/>
<glyph unicode="&#57351;" d="M392 475l-271 0c-46 0-84-38-84-84l0-271c0-46 38-83 84-83l271 0c46 0 83 37 83 83l0 271c0 46-37 84-83 84z m-8-171c0-3 0-5 0-8 0-74-57-159-160-159-32 0-61 9-86 25 4-1 9-1 13-1 26 0 51 9 70 24-25 1-45 17-53 39 4-1 7-1 11-1 5 0 10 1 15 2-26 5-45 28-45 55 0 0 0 1 0 1 7-4 16-7 25-7-15 10-25 27-25 47 0 10 3 20 8 28 28-34 69-56 116-59-1 4-2 9-2 13 0 31 25 56 56 56 16 0 31-7 41-18 13 3 25 8 36 14-4-13-13-24-25-31 12 1 23 4 33 9-8-11-17-21-28-29z"/>
<glyph unicode="&#57352;" d="M333 434c0-43-35-78-78-78-43 0-78 35-78 78 0 43 35 78 78 78 43 0 78-35 78-78z m-177-303c0-43-35-78-78-78-43 0-78 35-78 78 0 43 35 78 78 78 43 0 78-35 78-78z m358 0c0-43-35-78-78-78-43 0-78 35-78 78 0 43 35 78 78 78 43 0 78-35 78-78z m-311-63c18-6 39-10 60-10 25 0 50 5 70 19l-9 13c-34-24-81-20-115-8l11 11c-13-4-32-4-47-3 10-11 21-26 28-39z m123-24l12-10c-61-29-131-23-190 12l-8-14c36-21 75-32 116-32 31 0 62 6 91 20l3-16c4 13 15 29 24 41-15-3-34-4-48-1z m-292 191c5 14 15 30 25 39l-15-4c7 53 40 100 89 126l-7 14c-53-28-90-80-98-139l-15 6c9-11 17-28 21-42z m101 112c-33-27-53-70-53-112l16 0c0 42 17 73 46 98l3-15c4 13 14 30 23 40-14-3-33-4-47-2z m327-77l-15 4c10-9 19-27 24-39 5 14 13 31 22 41l-15-6c-9 60-45 111-98 139l-7-13c48-26 81-73 89-126z m-100 63c28-25 45-56 45-98l16 0c0 42-20 85-53 112l13 10c-14-2-32-1-47 2 9-11 19-27 22-41z"/>
<glyph unicode="&#57350;" d="M256 482c-125 0-227-101-227-227 0-125 101-227 227-227 125 0 227 101 227 227 0 126-102 227-227 227z m0-413c-102 0-186 84-186 186 0 102 84 186 186 186 102 0 186-83 186-186 0-103-84-186-186-186z m-6 196l-108 0 0-41 149 0 0 167-41 0z"/>
<glyph unicode="&#49;" d="M259 51c-113 0-205 92-205 205 0 113 92 205 205 205 113 0 203-92 203-205 0-113-92-205-203-205z m0 381c-98 0-177-80-177-176 0-98 80-176 176-176 98 0 176 80 176 176 1 96-79 176-175 176z"/>
</font>
</defs>
</svg>
